<?xml version="1.0" encoding="UTF-8" standalone="no"?>
<svg
   height="44"
   width="38"
   version="1.1"
   id="svg961"
   xmlns="http://www.w3.org/2000/svg"
   xmlns:svg="http://www.w3.org/2000/svg">
  <defs
     id="defs965" />
  <path
     d="m 4.7912908,41.76392 q -1.2,0 -2.1,-0.9 -0.9,-0.9 -0.9,-2.1 V 8.6139205 h 3 V 38.76392 H 28.491291 v 3 z m 6.0000002,-6 q -1.2000002,0 -2.1000002,-0.9 -0.9,-0.9 -0.9,-2.1 V 4.7639205 q 0,-1.2 0.9,-2.1 0.9,-0.9 2.1000002,-0.9 h 22 q 1.2,0 2.1,0.9 0.9,0.9 0.9,2.1 V 32.76392 q 0,1.2 -0.9,2.1 -0.9,0.9 -2.1,0.9 z m 0,-3 h 22 V 4.7639205 h -22 z m 0,0 V 4.7639205 Z"
     id="path959" />
</svg>
