<?xml version="1.0" encoding="UTF-8" standalone="no"?>
<svg
   width="26"
   height="18"
   viewBox="0 0 26 18"
   fill="none"
   version="1.1"
   id="svg35"
   xmlns="http://www.w3.org/2000/svg"
   xmlns:svg="http://www.w3.org/2000/svg">
  <defs
     id="defs39" />
  <path
     id="path33"
     d="M 13.308594 0.11132812 C 10.517021 0.11132812 7.9268891 0.96804285 5.78125 2.4296875 L 2.2285156 0.171875 L 0.91796875 2.234375 L 3.8066406 4.0703125 C 2.5276205 5.3576952 1.5072856 6.9006754 0.83007812 8.6191406 C 2.7926561 13.599371 7.6364338 17.128906 13.308594 17.128906 C 16.073791 17.128906 18.639748 16.287996 20.773438 14.851562 L 24.345703 17.123047 L 25.65625 15.058594 L 22.759766 13.21875 C 24.061669 11.921674 25.101299 10.359432 25.787109 8.6191406 C 23.824509 3.6389506 18.980794 0.11132813 13.308594 0.11132812 z M 13.308594 2.3808594 C 17.608194 2.3808594 21.442653 4.7960806 23.314453 8.6191406 C 22.681794 9.9113054 21.820132 11.038917 20.796875 11.970703 L 18.130859 10.277344 C 18.310763 9.7564004 18.412109 9.2001985 18.412109 8.6191406 C 18.412109 5.8057306 16.121994 3.515625 13.308594 3.515625 C 11.930689 3.515625 10.679412 4.0655827 9.7597656 4.9570312 L 7.8984375 3.7753906 C 9.5146174 2.8796069 11.363302 2.3808594 13.308594 2.3808594 z M 5.7675781 5.3164062 L 8.4609375 7.0273438 C 8.2955918 7.528936 8.203125 8.0631236 8.203125 8.6191406 C 8.203125 11.432571 10.495194 13.724609 13.308594 13.724609 C 14.660321 13.724609 15.888203 13.191764 16.802734 12.330078 L 18.650391 13.503906 C 17.050295 14.376205 15.226866 14.859375 13.308594 14.859375 C 9.0091037 14.859375 5.1745644 12.442171 3.3027344 8.6191406 C 3.9247894 7.348644 4.7669924 6.2391358 5.7675781 5.3164062 z M 13.308594 5.7832031 C 14.874194 5.7832031 16.144531 7.0536106 16.144531 8.6191406 C 16.144531 8.7469117 16.13163 8.8727822 16.115234 8.9960938 L 11.773438 6.2363281 C 12.216095 5.9505299 12.742875 5.7832031 13.308594 5.7832031 z M 10.488281 8.3164062 L 14.777344 11.041016 C 14.348278 11.302095 13.847251 11.455078 13.308594 11.455078 C 11.743094 11.455078 10.472656 10.184671 10.472656 8.6191406 C 10.472656 8.5165457 10.477642 8.4161931 10.488281 8.3164062 z "
     style="stroke:none;stroke-opacity:1;fill:#482edf;fill-opacity:0.34999999" />
</svg>
