<svg width="26" height="18" viewBox="0 0 26 18" fill="none" xmlns="http://www.w3.org/2000/svg">
<path d="M13.3079 2.38045C17.6075 2.38045 21.4419 4.79681 23.3137 8.61987C21.4419 12.4429 17.6075 14.8593 13.3079 14.8593C9.00841 14.8593 5.17401 12.4429 3.30218 8.61987C5.17401 4.79681 9.00841 2.38045 13.3079 2.38045ZM13.3079 0.111572C7.63574 0.111572 2.79168 3.63968 0.829102 8.61987C2.79168 13.6001 7.63574 17.1282 13.3079 17.1282C18.9801 17.1282 23.8242 13.6001 25.7868 8.61987C23.8242 3.63968 18.9801 0.111572 13.3079 0.111572ZM13.3079 5.78377C14.8735 5.78377 16.144 7.05434 16.144 8.61987C16.144 10.1854 14.8735 11.456 13.3079 11.456C11.7424 11.456 10.4718 10.1854 10.4718 8.61987C10.4718 7.05434 11.7424 5.78377 13.3079 5.78377ZM13.3079 3.51489C10.4945 3.51489 8.20296 5.80646 8.20296 8.61987C8.20296 11.4333 10.4945 13.7248 13.3079 13.7248C16.1213 13.7248 18.4129 11.4333 18.4129 8.61987C18.4129 5.80646 16.1213 3.51489 13.3079 3.51489Z" fill="#482EDF" fill-opacity="0.35"/>
</svg>
