<svg width="24" height="24" viewBox="0 0 24 24" xmlns="http://www.w3.org/2000/svg">
<path d="M12 17.0348C14.7652 17.0348 17.0348 14.7913 17.0348 12C17.0348 9.23478 14.7913 6.96522 12 6.96522C9.23478 6.96522 6.96522 9.2087 6.96522 12C6.96522 14.7652 9.23478 17.0348 12 17.0348ZM12 8.81739C13.7478 8.81739 15.1826 10.2522 15.1826 12C15.1826 13.7478 13.7478 15.1826 12 15.1826C10.2522 15.1826 8.81739 13.7478 8.81739 12C8.81739 10.2522 10.2522 8.81739 12 8.81739ZM12 24H12.1304C13.0435 24 13.8261 23.8957 13.8783 23.8957C14.2957 23.8435 14.6087 23.5304 14.687 23.113L14.9478 21.2348C15.5217 21.0522 16.0696 20.8174 16.5913 20.5304L18.0522 21.6522C18.3913 21.913 18.8348 21.887 19.1739 21.6522C19.2 21.6261 19.8261 21.1304 20.4783 20.5043L20.5826 20.4C21.2348 19.7478 21.7043 19.1217 21.7304 19.0957C21.9913 18.7565 21.9913 18.313 21.7304 17.9739L20.5826 16.4609C20.8696 15.9391 21.0783 15.3652 21.2609 14.7913L23.087 14.5304C23.5043 14.4783 23.8174 14.1391 23.8696 13.7217C23.8957 13.6957 24 12.913 24 12V11.8696C24 10.9565 23.8957 10.1739 23.8957 10.1217C23.8435 9.70435 23.5304 9.3913 23.113 9.31304L21.2348 9.05217C21.0522 8.47826 20.8174 7.93043 20.5304 7.4087L21.6522 5.94783C21.913 5.6087 21.887 5.16522 21.6522 4.82609C21.6261 4.8 21.1304 4.17391 20.5043 3.52174L20.4 3.41739C19.7478 2.76522 19.1217 2.29565 19.0957 2.26957C18.7565 2.0087 18.313 2.0087 17.9739 2.26957L16.4609 3.41739C15.9391 3.13043 15.3652 2.92174 14.7913 2.73913L14.5304 0.913043C14.4783 0.495652 14.1391 0.182609 13.7217 0.130435C13.6957 0.104348 12.913 0 12 0H11.8696C10.9565 0 10.1739 0.104348 10.1217 0.104348C9.70435 0.156522 9.3913 0.469565 9.31304 0.886957L9.05217 2.76522C8.47826 2.94783 7.93044 3.18261 7.4087 3.46957L5.94783 2.34783C5.6087 2.08696 5.16522 2.11304 4.82609 2.34783C4.8 2.37391 4.17391 2.86957 3.52174 3.49565L3.41739 3.6C2.76522 4.25217 2.29565 4.87826 2.26957 4.90435C2.0087 5.24348 2.0087 5.68696 2.26957 6.02609L3.3913 7.53913C3.10435 8.06087 2.89565 8.63478 2.71304 9.2087L0.886957 9.46957C0.469566 9.52174 0.156523 9.86087 0.104349 10.2783C0.104349 10.3043 0 11.113 0 12.0261V12.1565C0 13.0696 0.104349 13.8522 0.104349 13.9043C0.156523 14.3217 0.469566 14.6348 0.886957 14.713L2.76522 14.9739C2.94783 15.5478 3.18261 16.0957 3.46957 16.6174L2.34783 18.1043C2.08696 18.4435 2.11304 18.887 2.34783 19.2261C2.37391 19.2522 2.86957 19.8783 3.49565 20.5304L3.6 20.6348C4.25217 21.287 4.87826 21.7565 4.90435 21.7826C5.24348 22.0435 5.68696 22.0435 6.02609 21.7826L7.53913 20.6087C8.06087 20.8957 8.63478 21.1043 9.2087 21.287L9.46957 23.113C9.52174 23.5304 9.86087 23.8435 10.2783 23.8957C10.3043 23.8957 11.087 24 12 24ZM12.9391 22.1217C12.7043 22.1478 12.4174 22.1478 12.1304 22.1478H12C11.713 22.1478 11.4261 22.1478 11.1913 22.1217L10.9565 20.4C10.9043 20.0087 10.6174 19.7217 10.2522 19.6174C9.44348 19.4348 8.66087 19.1217 7.95652 18.6783C7.74783 18.5478 7.48696 18.5217 7.25217 18.5739C7.12174 18.6 6.9913 18.6783 6.88696 18.7565L5.50435 19.8C5.32174 19.6435 5.11304 19.4609 4.90435 19.2522L4.8 19.1478C4.5913 18.9391 4.4087 18.7304 4.25217 18.5478L5.29565 17.1652C5.53044 16.8522 5.53044 16.4348 5.34783 16.1217C4.90435 15.4435 4.5913 14.687 4.4087 13.9043C4.33043 13.513 4.01739 13.2 3.62609 13.1478L1.87826 12.913C1.85217 12.6783 1.85217 12.3913 1.85217 12.1043V12C1.85217 11.713 1.85217 11.4261 1.87826 11.1913L3.6 10.9565C3.96522 10.9043 4.27826 10.6174 4.38261 10.2522C4.56522 9.44348 4.87826 8.68696 5.29565 7.98261C5.34783 7.93043 5.37391 7.85217 5.4 7.77391C5.50435 7.48696 5.45217 7.14783 5.26956 6.91304L4.2 5.50435C4.35652 5.32174 4.53913 5.11304 4.74783 4.90435L4.85217 4.8C5.06087 4.5913 5.26957 4.4087 5.45218 4.25217L6.83478 5.29565C7.17391 5.53043 7.61739 5.53043 7.93044 5.29565C8.6087 4.87826 9.36522 4.56522 10.1478 4.35652C10.513 4.27826 10.8 3.96522 10.8522 3.57391L11.087 1.82609C11.3217 1.8 11.6087 1.8 11.8957 1.8H12C12.287 1.8 12.5739 1.8 12.8087 1.82609L13.0435 3.6C13.0957 4.01739 13.4087 4.33043 13.8261 4.38261C14.6087 4.56522 15.3652 4.87826 16.0435 5.29565C16.2522 5.42609 16.513 5.45217 16.7478 5.4C16.8783 5.37391 17.0087 5.29565 17.113 5.21739L18.4696 4.17391C18.6522 4.33043 18.8609 4.51304 19.0696 4.72174L19.1739 4.82609C19.3826 5.03478 19.5652 5.24348 19.7217 5.42609L18.6783 6.8087C18.4435 7.12174 18.4435 7.51304 18.6261 7.85217C18.6522 7.87826 18.6522 7.90435 18.6783 7.93043C19.0957 8.6087 19.4087 9.36522 19.5913 10.1478C19.6696 10.513 19.9826 10.8 20.3739 10.8522L22.1217 11.087C22.1478 11.3217 22.1478 11.6087 22.1478 11.8957V12C22.1478 12.287 22.1478 12.5739 22.1217 12.8087L20.4 13.0435C19.9826 13.0957 19.6696 13.4087 19.6174 13.8261V13.8522C19.4348 14.6348 19.1217 15.3652 18.7043 16.0435C18.5739 16.2783 18.5217 16.5652 18.6261 16.8261C18.6522 16.9304 18.7304 17.0348 18.8087 17.1391L19.8261 18.4957C19.6696 18.6783 19.487 18.887 19.2783 19.0957L19.1739 19.2C18.9652 19.4087 18.7565 19.5913 18.5739 19.7478L17.1913 18.7043C16.8522 18.4435 16.3565 18.4696 16.0435 18.7304C15.3652 19.1478 14.6348 19.4348 13.8783 19.6435C13.513 19.7217 13.2261 20.0348 13.1739 20.4261L12.9391 22.1217Z" />
</svg>
