<svg width="24" height="24" viewBox="0 0 24 24" xmlns="http://www.w3.org/2000/svg">
<path d="M23.632 8.16828L12.5205 0.167977C12.3691 0.0587704 12.1871 0 12.0005 0C11.8138 0 11.6318 0.0587704 11.4804 0.167977L0.368903 8.16828C0.254837 8.25056 0.161921 8.35873 0.0977907 8.4839C0.0336602 8.60907 0.000145379 8.74767 0 8.88831V23.1111C0 23.3468 0.0936541 23.5729 0.260359 23.7396C0.427065 23.9063 0.653166 24 0.888923 24H23.112C23.3478 24 23.5739 23.9063 23.7406 23.7396C23.9073 23.5729 24.0009 23.3468 24.0009 23.1111V8.88831C24.0008 8.74767 23.9673 8.60907 23.9031 8.4839C23.839 8.35873 23.7461 8.25056 23.632 8.16828ZM14.2228 22.2222H9.77815V14.2218H14.2228V22.2222ZM22.2231 22.2222H16.0006V13.3329C16.0006 13.0972 15.907 12.8711 15.7403 12.7044C15.5735 12.5377 15.3474 12.444 15.1117 12.444H8.88923C8.65347 12.444 8.42737 12.5377 8.26067 12.7044C8.09396 12.8711 8.00031 13.0972 8.00031 13.3329V22.2222H1.77785V9.33277L12.0005 1.98138L22.2231 9.33277V22.2222Z" />
</svg>
