<?xml version="1.0" encoding="UTF-8" standalone="no"?>
<svg
   height="48"
   width="48"
   version="1.1"
   id="svg864"
   sodipodi:docname="language_icon_white.svg"
   inkscape:version="1.1.2 (0a00cf5339, 2022-02-04)"
   xmlns:inkscape="http://www.inkscape.org/namespaces/inkscape"
   xmlns:sodipodi="http://sodipodi.sourceforge.net/DTD/sodipodi-0.dtd"
   xmlns="http://www.w3.org/2000/svg"
   xmlns:svg="http://www.w3.org/2000/svg">
  <defs
     id="defs868" />
  <sodipodi:namedview
     id="namedview866"
     pagecolor="#ffffff"
     bordercolor="#111111"
     borderopacity="1"
     inkscape:pageshadow="0"
     inkscape:pageopacity="0"
     inkscape:pagecheckerboard="1"
     showgrid="false"
     inkscape:zoom="15.270833"
     inkscape:cx="24"
     inkscape:cy="24"
     inkscape:window-width="1920"
     inkscape:window-height="948"
     inkscape:window-x="0"
     inkscape:window-y="1107"
     inkscape:window-maximized="1"
     inkscape:current-layer="svg864" />
  <path
     d="m23.75 44 9.05-24h4.1l9.3 24h-4.35l-2.05-6.3h-9.6L27.85 44Zm7.55-9.8h7.1l-3.5-9.7h-.1ZM8 38l-2.75-2.75 10.2-10.2q-1.9-2.2-3.375-4.425Q10.6 18.4 9.5 16h4.35q.85 1.65 1.875 3.125t2.325 3.025q2.25-2.35 3.75-4.875T24.35 12H2V8h14V4h4v4h14v4h-5.65q-1.1 3.45-2.925 6.775Q23.6 22.1 20.95 25.1l4.9 4.95-1.5 4.05L18 28Z"
     id="path862"
     style="fill:#ffffff" />
</svg>
