<svg width="24" height="24" viewBox="0 0 24 24" xmlns="http://www.w3.org/2000/svg">
<path d="M23.9278 1.02195C23.8757 0.499717 23.4846 0.108046 22.9631 0.0558228C16.3662 -0.466406 11.6468 2.7453 8.70037 6.76646C7.08376 6.24423 5.33678 6.42701 3.74624 7.3148C2.20785 8.17648 0.930204 9.63872 0.0958234 11.4143C-0.0866974 11.8321 -0.00847415 12.3021 0.330493 12.6154C0.643386 12.9288 1.1388 12.981 1.52992 12.7721C3.19868 11.8843 5.07603 12.0671 6.19723 13.1899L10.7863 17.7855L10.8124 17.8116C11.9336 18.9344 12.1161 20.8144 11.2296 22.4855C11.021 22.8772 11.0992 23.3733 11.386 23.6867C11.5946 23.8956 11.8554 24 12.1422 24C12.2986 24 12.4551 23.9739 12.5855 23.8956C14.3585 23.06 15.8187 21.7544 16.6791 20.24C17.5917 18.6472 17.7743 16.8977 17.2267 15.2527C18.4 14.391 19.4691 13.451 20.3556 12.4065C23.1195 9.24704 24.3189 5.40866 23.9278 1.02195ZM3.51157 10.1348C4.63277 9.03815 6.04078 8.35926 7.52703 8.62037C7.10984 9.35149 6.77087 10.0826 6.45798 10.8137C5.57145 10.3176 4.55454 10.0826 3.51157 10.1348ZM13.9153 20.5272C13.9413 19.4566 13.7067 18.4383 13.2373 17.5505C13.9935 17.2371 14.7236 16.8716 15.4276 16.4799C15.6883 17.9683 15.0365 19.4044 13.9153 20.5272ZM11.8293 15.8532L8.15281 12.1715C10.0041 7.23646 14.5932 1.96196 21.9201 2.09251C22.1548 10.8398 14.9582 14.626 11.8293 15.8532ZM18.5826 5.43478C18.8955 5.74811 19.078 6.19201 19.078 6.6359C19.078 7.0798 18.8955 7.52369 18.5826 7.83703C18.2697 8.15036 17.8264 8.33314 17.3831 8.33314C16.9399 8.33314 16.4966 8.17648 16.1837 7.83703C15.8708 7.49758 15.6883 7.0798 15.6883 6.6359C15.6883 6.19201 15.8708 5.74811 16.1837 5.43478C16.4966 5.12144 16.9399 4.93866 17.3831 4.93866C17.8264 4.93866 18.2697 5.12144 18.5826 5.43478ZM3.90268 16.2971C2.70326 17.4983 2.65111 19.9005 2.65111 20.3705C2.65111 20.945 3.12045 21.415 3.69409 21.415H3.72016C4.26773 21.415 6.56227 21.3366 7.73562 20.1616C8.4657 19.4305 8.62215 18.6733 8.62215 18.1772C8.62215 17.4721 8.33533 16.7932 7.78777 16.2449C6.48405 14.9132 4.84136 15.331 3.90268 16.2971ZM6.27545 18.6733C6.01471 18.9344 5.44107 19.1172 4.84136 19.1955C4.94566 18.5949 5.12818 18.0205 5.36285 17.7855C5.54537 17.6027 5.70182 17.4983 5.88434 17.4983C6.01471 17.4983 6.17116 17.5766 6.3276 17.7333C6.48405 17.8899 6.56227 18.0466 6.56227 18.1772C6.5362 18.3338 6.40583 18.5427 6.27545 18.6733Z" />
</svg>
