<svg width="33" height="42" viewBox="0 0 33 42" fill="none" xmlns="http://www.w3.org/2000/svg">
<path d="M28.9443 14H26.9443V10C26.9443 4.48 22.4643 0 16.9443 0C11.4243 0 6.94434 4.48 6.94434 10H10.9443C10.9443 6.68 13.6243 4 16.9443 4C20.2643 4 22.9443 6.68 22.9443 10V14H4.94434C2.74434 14 0.944336 15.8 0.944336 18V38C0.944336 40.2 2.74434 42 4.94434 42H28.9443C31.1443 42 32.9443 40.2 32.9443 38V18C32.9443 15.8 31.1443 14 28.9443 14ZM28.9443 38H4.94434V18H28.9443V38ZM16.9443 32C19.1443 32 20.9443 30.2 20.9443 28C20.9443 25.8 19.1443 24 16.9443 24C14.7443 24 12.9443 25.8 12.9443 28C12.9443 30.2 14.7443 32 16.9443 32Z" fill="#482EDF" fill-opacity="0.35"/>
</svg>
