<svg width="29" height="8" viewBox="0 0 29 8" fill="none" xmlns="http://www.w3.org/2000/svg">
<path d="M4.13993 0.400635C2.1949 0.400635 0.603516 1.99202 0.603516 3.93705C0.603516 5.88208 2.1949 7.47347 4.13993 7.47347C6.08496 7.47347 7.67635 5.88208 7.67635 3.93705C7.67635 1.99202 6.08496 0.400635 4.13993 0.400635ZM25.3584 0.400635C23.4134 0.400635 21.822 1.99202 21.822 3.93705C21.822 5.88208 23.4134 7.47347 25.3584 7.47347C27.3035 7.47347 28.8949 5.88208 28.8949 3.93705C28.8949 1.99202 27.3035 0.400635 25.3584 0.400635ZM14.7492 0.400635C12.8042 0.400635 11.2128 1.99202 11.2128 3.93705C11.2128 5.88208 12.8042 7.47347 14.7492 7.47347C16.6942 7.47347 18.2856 5.88208 18.2856 3.93705C18.2856 1.99202 16.6942 0.400635 14.7492 0.400635Z" fill="#482EDF"/>
</svg>
