<svg width="29" height="8" viewBox="0 0 29 8" fill="none" xmlns="http://www.w3.org/2000/svg">
<path d="M4.13993 0.522461C2.1949 0.522461 0.603516 2.11385 0.603516 4.05888C0.603516 6.00391 2.1949 7.59529 4.13993 7.59529C6.08496 7.59529 7.67635 6.00391 7.67635 4.05888C7.67635 2.11385 6.08496 0.522461 4.13993 0.522461ZM25.3584 0.522461C23.4134 0.522461 21.822 2.11385 21.822 4.05888C21.822 6.00391 23.4134 7.59529 25.3584 7.59529C27.3035 7.59529 28.8949 6.00391 28.8949 4.05888C28.8949 2.11385 27.3035 0.522461 25.3584 0.522461ZM14.7492 0.522461C12.8042 0.522461 11.2128 2.11385 11.2128 4.05888C11.2128 6.00391 12.8042 7.59529 14.7492 7.59529C16.6942 7.59529 18.2856 6.00391 18.2856 4.05888C18.2856 2.11385 16.6942 0.522461 14.7492 0.522461Z" fill="black"/>
</svg>
