<?xml version="1.0" standalone="no"?>
<!DOCTYPE svg PUBLIC "-//W3C//DTD SVG 1.1//EN" "http://www.w3.org/Graphics/SVG/1.1/DTD/svg11.dtd">
<svg xmlns="http://www.w3.org/2000/svg">
<defs >
<font id="Mulish" horiz-adv-x="581" ><font-face
    font-family="Mulish ExtraLight"
    units-per-em="1000"
    panose-1="0 0 0 0 0 0 0 0 0 0"
    ascent="1005"
    descent="-250"
    alphabetic="0" />
<glyph unicode=" " horiz-adv-x="261" />
<glyph unicode="!" horiz-adv-x="228" d="M79 184L136 705H236L129 184H79ZM23 0L39 102H142L125 0H23Z" />
<glyph unicode="&quot;" horiz-adv-x="392" d="M112 428L135 705H230L167 428H112ZM283 428L306 705H401L338 428H283Z" />
<glyph unicode="#" horiz-adv-x="600" d="M46 0L111 182H18L28 241H132L216 472H86L95 531H237L299 705H363L300 531H458L520 705H584L521 531H614L605 472H500L416 241H547L538 182H395L330 0H265L331 182H175L111 0H46ZM196 241H353L436 472H279L196 241Z" />
<glyph unicode="$" horiz-adv-x="600" d="M218 -115L237 12L255 -5Q212 -2 169 6T87 31T20 70L57 134Q98 103 150 86T279 68Q359 68 405 100T460 184Q467 230 441 258T346 298L254 316Q197 327 161 353T109 420T102 514Q111 573 146 615T236 682T360 709L345 695L366
820H434L414 695L403 709Q454 707 504 688T588 633L552 570Q519 603 474 620T369 637Q291 637 241 603T181 510Q173 461 197 431T283 389L375 371Q471 354 512 306T540 180Q532 127 499 87T411 24T287 -4L307 13L286 -115H218Z" />
<glyph unicode="%" horiz-adv-x="937" d="M260 0H183L709 705H787L260 0ZM239 282Q156 282 116 341T91 508Q107 604 159 658T289 713Q372 713 412 654T436 488Q421 392 370 337T239 282ZM242 340Q291 340 323 379T368 496Q380 576 357 616T286 656Q238 656 206
618T162 501Q149 421 171 381T242 340ZM681 -9Q597 -9 556 50T533 218Q548 313 600 367T730 422Q813 422 854 363T878 198Q862 101 811 46T681 -9ZM683 49Q733 49 764 88T809 205Q822 285 799 325T727 365Q679 365 647 327T603 210Q591 130 613 90T683 49Z" />
<glyph unicode="&amp;" horiz-adv-x="671" d="M611 -9Q567 12 532 42T473 102L498 101Q448 49 383 20T246 -9Q174 -9 125 15T53 83T39 181Q49 243 94 287T214 375L262 403L246 388Q207 438 192 480T185 571Q191 611 215 643T279 695T375 714Q422 714 457 697T511
646T522 566Q517 533 498 502T440 439T338 372V394L498 184H484Q516 225 540 285T578 413H651Q635 330 604 259T530 132L524 156Q546 128 578 100T649 51L611 -9ZM256 57Q316 57 365 81T456 151L450 128L269 360L302 356L258 329Q217 306 188 284T143 238T120 184Q112
126 146 92T256 57ZM372 653Q327 653 298 629T262 568Q258 542 261 521T277 478T315 421L297 418Q374 460 410 493T452 566Q459 606 437 629T372 653Z" />
<glyph unicode="&apos;" horiz-adv-x="221" d="M112 428L135 705H230L167 428H112Z" />
<glyph unicode="(" horiz-adv-x="318" d="M146 -180Q129 -130 118 -80T100 20T94 119Q94 231 119 336T188 536T288 705H361Q282 574 230 422T178 99Q178 35 187 -36T213 -180H146Z" />
<glyph unicode=")" horiz-adv-x="318" d="M33 -180H-40Q39 -49 91 103T143 426Q143 490 134 561T108 705H175Q192 656 203 606T221 505T227 406Q227 295 202 190T133 -10T33 -180Z" />
<glyph unicode="*" horiz-adv-x="454" d="M174 366L126 401L235 527L82 574L104 631L252 575L260 736H321L303 575L459 631L474 574L315 527L404 401L356 366L277 500L174 366Z" />
<glyph unicode="+" horiz-adv-x="600" d="M235 40L269 256H53L63 318H279L312 528H376L343 318H557L547 256H333L299 40H235Z" />
<glyph unicode="," horiz-adv-x="228" d="M51 -114L18 -79Q48 -52 58 -31T73 17L96 0H22L39 102H141L128 22Q124 -5 116 -28T93 -72T51 -114Z" />
<glyph unicode="-" horiz-adv-x="428" d="M70 241L81 308H365L355 241H70Z" />
<glyph unicode="." horiz-adv-x="228" d="M23 0L39 102H142L125 0H23Z" />
<glyph unicode="/" horiz-adv-x="286" d="M2 -55H-71L319 748H392L2 -55Z" />
<glyph unicode="0" horiz-adv-x="600" d="M268 -9Q141 -9 91 88T69 365Q98 544 173 629T365 714Q490 714 540 619T562 342Q534 163 458 77T268 -9ZM272 63Q354 63 406 131T482 352Q498 454 490 518T449 612T360 643Q277 643 226 576T150 356Q134 255 142 190T183
94T272 63Z" />
<glyph unicode="1" horiz-adv-x="600" d="M87 0L99 71H264L354 634L397 633L184 512L197 596L388 705H448L347 71H503L492 0H87Z" />
<glyph unicode="2" horiz-adv-x="600" d="M46 0L56 62L356 335Q410 385 439 425T476 515Q486 577 453 609T350 641Q292 641 241 623T140 565L110 629Q157 668 224 691T357 714Q430 714 478 691T548 622T560 515Q550 451 512 398T407 284L141 48L140 71H518L507 0H46Z" />
<glyph unicode="3" horiz-adv-x="600" d="M265 -9Q194 -9 133 13T32 76L67 140Q110 100 160 82T268 64Q344 64 390 94T447 192Q457 257 421 290T304 323H196L207 392H306Q376 392 423 426T480 522Q489 580 455 610T351 641Q292 641 241 623T139 564L110 628Q159
670 224 692T359 714Q467 714 521 664T561 523Q552 464 508 418T398 355L399 366Q471 354 504 305T526 179Q513 87 443 39T265 -9Z" />
<glyph unicode="4" horiz-adv-x="600" d="M346 0L370 153H33L43 213L470 705H539L461 220H570L559 153H450L427 0H346ZM381 220L443 607H469L115 199L113 220H381Z" />
<glyph unicode="5" horiz-adv-x="600" d="M281 -9Q235 -9 193 1T115 30T53 76L86 140Q128 101 178 83T284 64Q358 64 408 101T469 212Q480 282 446 326T337 370Q286 370 243 350T162 286H102L168 705H586L574 635H236L192 354H169Q203 397 252 419T358 441Q425
441 472 413T540 332T549 205Q539 138 503 90T411 17T281 -9Z" />
<glyph unicode="6" horiz-adv-x="600" d="M290 -9Q207 -9 151 30T74 150T73 355Q92 477 138 556T255 675T412 714Q471 714 522 695T604 636L568 575Q534 610 495 625T408 641Q306 641 242 572T152 351L136 258H126Q141 315 172 356T250 420T355 442Q421 442 467
413T535 331T545 204Q535 139 502 92T415 18T290 -9ZM290 61Q343 61 380 79T438 131T467 209Q475 260 461 296T414 353T335 373Q287 373 250 353T188 299T157 219Q150 172 163 137T210 81T290 61Z" />
<glyph unicode="7" horiz-adv-x="600" d="M68 0L522 670L520 634H125L138 705H607L597 643L164 0H68Z" />
<glyph unicode="8" horiz-adv-x="600" d="M268 -9Q142 -9 83 48T38 199Q50 273 101 316T228 369L226 354Q161 369 130 420T109 536Q122 619 188 666T369 714Q444 714 494 689T566 620T579 516Q569 451 525 407T411 351L413 365Q461 356 492 332T537 269T542 179Q528
88 457 40T268 -9ZM272 59Q358 59 406 92T465 191Q476 257 438 290T311 323Q223 323 175 292T117 197Q107 133 145 96T272 59ZM322 391Q399 391 444 421T499 514Q509 577 474 611T362 646Q283 646 240 614T187 526Q178 467 212 429T322 391Z" />
<glyph unicode="9" horiz-adv-x="600" d="M220 -9Q162 -9 111 11T28 69L65 130Q98 95 138 80T225 64Q326 64 391 134T481 354L496 447H507Q492 391 460 349T383 285T278 263Q213 263 166 292T98 375T88 502Q98 566 131 613T219 687T345 714Q428 714 483 675T559
555T560 350Q541 229 494 149T378 30T220 -9ZM297 332Q346 332 383 352T445 407T476 487Q484 534 470 569T424 625T344 645Q291 645 254 627T195 575T166 496Q159 446 173 409T219 352T297 332Z" />
<glyph unicode=":" horiz-adv-x="228" d="M86 400L102 502H205L189 400H86ZM22 0L39 102H141L124 0H22Z" />
<glyph unicode=";" horiz-adv-x="228" d="M50 -114L16 -85Q48 -57 60 -33T76 17L92 0H26L42 102H144L131 23Q126 -17 108 -50T50 -114ZM86 400L102 502H205L189 400H86Z" />
<glyph unicode="&lt;" horiz-adv-x="600" d="M511 35L53 255L63 319L591 539L580 467L87 263L94 303L522 100L511 35Z" />
<glyph unicode="=" horiz-adv-x="600" d="M69 356L79 418H572L562 356H69ZM38 157L48 218H541L531 157H38Z" />
<glyph unicode="&gt;" horiz-adv-x="600" d="M19 35L31 107L523 311L516 270L89 474L99 539L557 319L547 255L19 35Z" />
<glyph unicode="?" horiz-adv-x="448" d="M161 184L166 213Q172 247 184 276T221 338T287 409Q309 430 330 455T366 508T380 567Q380 603 353 623T276 643Q236 643 199 633T127 604L139 679Q174 697 215 705T296 714Q347 714 385 698T443 652T464 581Q464 537
446 500T399 431T339 373Q281 321 255 285T220 209L213 184H161ZM106 0L123 102H225L209 0H106Z" />
<glyph unicode="@" horiz-adv-x="969" d="M505 -163Q410 -163 331 -133T193 -45T104 92T72 273Q72 371 105 452T198 591T340 682T518 714Q605 714 677 688T803 612T886 495T916 344Q916 257 890 193T818 94T715 59Q655 59 625 93T599 187L617 182Q592 122 546
91T450 59Q372 59 330 107T287 241Q287 314 315 371T392 462T503 495Q558 495 592 468T638 392H626L642 486H708L664 227Q661 214 660 202T659 180Q659 147 674 130T719 113Q757 113 788 142T839 223T859 344Q859 415 834 473T763 572T655 635T517 657Q434 657
364 630T243 552T164 430T136 273Q136 154 182 69T311 -61T505 -107Q586 -107 651 -82T760 -10L793 -58Q744 -109 670 -136T505 -163ZM459 117Q503 117 538 144T592 218T612 325Q612 381 587 409T511 437Q467 437 432 412T376 343T356 241Q356 181 383 149T459
117Z" />
<glyph unicode="A" horiz-adv-x="735" d="M-22 0L401 705H473L677 0H595L539 201L572 180H142L185 201L67 0H-22ZM424 610L203 230L182 248H553L532 230L427 610H424Z" />
<glyph unicode="B" horiz-adv-x="680" d="M48 0L160 705H447Q556 705 608 656T646 516Q635 448 589 407T471 351L473 365Q549 356 585 308T610 184Q596 92 528 46T345 0H48ZM139 67H346Q422 67 471 95T529 186Q538 238 523 268T474 311T393 324H179L139 67ZM190
390H381Q463 390 508 420T562 506Q573 573 540 606T434 639H229L190 390Z" />
<glyph unicode="C" horiz-adv-x="684" d="M372 -9Q257 -9 186 38T89 169T79 365Q97 477 148 554T278 673T459 714Q531 714 586 693T681 633L647 565Q604 606 560 622T455 639Q337 639 262 565T166 356Q152 269 170 204T240 102T379 66Q435 66 488 85T589 147L618
81Q571 38 506 15T372 -9Z" />
<glyph unicode="D" horiz-adv-x="747" d="M48 0L160 705H386Q509 705 584 662T688 537T699 341Q681 227 627 151T487 38T284 0H48ZM142 71H287Q431 71 512 139T616 350Q638 494 579 564T375 635H231L142 71Z" />
<glyph unicode="E" horiz-adv-x="588" d="M48 0L160 705H610L599 637H229L191 392H538L527 323H180L139 69H509L498 0H48Z" />
<glyph unicode="F" horiz-adv-x="562" d="M48 0L160 705H600L588 637H231L193 390H528L517 322H182L131 0H48Z" />
<glyph unicode="G" horiz-adv-x="731" d="M381 -9Q260 -9 187 37T88 167T80 364Q98 476 150 554T284 673T472 714Q549 714 602 694T694 637L659 570Q632 595 605 610T545 632T468 640Q343 640 265 565T166 353Q144 218 196 141T387 64Q438 64 484 74T576 103L549
56L588 304H408L418 369H670L618 44Q589 28 549 16T465 -2T381 -9Z" />
<glyph unicode="H" horiz-adv-x="766" d="M48 0L160 705H243L193 393H618L668 705H750L638 0H556L607 322H182L131 0H48Z" />
<glyph unicode="I" horiz-adv-x="259" d="M48 0L160 705H243L131 0H48Z" />
<glyph unicode="J" horiz-adv-x="329" d="M10 -186Q-7 -186 -27 -184T-68 -175L-57 -106Q-38 -113 -22 -115T8 -118Q54 -118 81 -90T118 1L230 705H313L200 -5Q191 -65 167 -105T105 -166T10 -186Z" />
<glyph unicode="K" horiz-adv-x="634" d="M48 0L160 705H243L192 385H194L579 705H689L247 341L245 383L605 0H499L186 332H184L131 0H48Z" />
<glyph unicode="L" horiz-adv-x="545" d="M48 0L160 705H243L142 72H499L487 0H48Z" />
<glyph unicode="M" horiz-adv-x="858" d="M49 0L161 705H233L415 66H385L770 705H842L730 0H654L749 598H781L417 0H364L190 598H219L124 0H49Z" />
<glyph unicode="N" horiz-adv-x="747" d="M48 0L160 705H225L578 102L559 105L654 705H731L619 0H555L202 603L220 600L125 0H48Z" />
<glyph unicode="O" horiz-adv-x="772" d="M80 365Q98 477 147 554T274 673T450 714Q555 714 622 667T716 535T724 340Q707 229 657 151T530 32T353 -9Q249 -9 182 38T89 169T80 365ZM166 355Q151 265 169 200T235 100T360 64Q475 64 546 140T639 350Q653 440 635
505T568 606T444 641Q328 641 258 566T166 355Z" />
<glyph unicode="P" horiz-adv-x="651" d="M48 0L160 705H438Q553 705 606 648T643 492Q634 431 601 389T515 324T390 301H179L131 0H48ZM189 370H385Q463 370 507 402T562 498Q573 566 539 601T426 637H231L189 370Z" />
<glyph unicode="Q" horiz-adv-x="772" d="M506 -191Q480 -172 454 -142T406 -75T370 -1L447 26Q465 -26 499 -68T570 -142L506 -191ZM80 365Q98 477 147 554T274 673T450 714Q555 714 622 667T716 535T724 340Q707 229 657 151T530 32T353 -9Q249 -9 182 38T89
169T80 365ZM166 355Q151 265 169 200T235 100T360 64Q475 64 546 140T639 350Q653 440 635 505T568 606T444 641Q328 641 258 566T166 355Z" />
<glyph unicode="R" horiz-adv-x="692" d="M48 0L160 705H440Q557 705 610 650T648 496Q639 438 605 396T518 333T401 311L407 324H426Q467 324 495 304T537 237L610 0H523L453 233Q440 278 409 291T327 305H179L131 0H48ZM189 370H391Q467 370 511 404T566 500Q577
568 541 602T425 637H231L189 370Z" />
<glyph unicode="S" horiz-adv-x="623" d="M285 -9Q201 -9 136 11T26 64L60 130Q92 110 126 95T200 72T290 64Q377 64 425 96T482 182Q490 231 464 260T367 299L273 314Q175 328 133 380T103 514Q112 574 149 618T249 688T391 714Q463 714 521 694T617 640L584
574Q545 607 496 624T383 641Q299 641 247 606T185 512Q177 460 203 428T301 386L395 372Q494 358 535 310T564 179Q556 126 520 83T424 16T285 -9Z" />
<glyph unicode="T" horiz-adv-x="604" d="M219 0L319 635H71L82 705H662L650 635H402L302 0H219Z" />
<glyph unicode="U" horiz-adv-x="730" d="M334 -9Q242 -9 182 23T98 120T88 281L156 705H238L171 282Q154 173 193 119T341 64Q437 64 494 115T571 283L638 705H720L652 277Q636 178 596 115T490 21T334 -9Z" />
<glyph unicode="V" horiz-adv-x="698" d="M270 0L75 705H160L332 66H302L677 705H767L346 0H270Z" />
<glyph unicode="W" horiz-adv-x="1112" d="M240 0L106 705H189L303 70H268L595 705H661L774 70H742L1064 705H1150L790 0H716L605 611H625L312 0H240Z" />
<glyph unicode="X" horiz-adv-x="652" d="M-34 0L307 376V345L95 705H189L361 404H336L602 705H705L380 345L379 376L601 0H506L323 319H355L69 0H-34Z" />
<glyph unicode="Y" horiz-adv-x="607" d="M222 0L274 329L283 273L61 705H152L328 354H307L594 705H690L330 271L357 329L305 0H222Z" />
<glyph unicode="Z" horiz-adv-x="596" d="M3 0L13 61L530 666L525 634H104L115 705H621L611 644L93 40L98 71H531L520 0H3Z" />
<glyph unicode="[" horiz-adv-x="317" d="M37 -180L177 705H380L369 641H247L128 -116H250L240 -180H37Z" />
<glyph unicode="\" horiz-adv-x="286" d="M193 -55L56 748H124L262 -55H193Z" />
<glyph unicode="]" horiz-adv-x="317" d="M-60 -180L-51 -116H72L191 641H70L80 705H282L142 -180H-60Z" />
<glyph unicode="^" horiz-adv-x="600" d="M28 140L327 628H391L536 140H473L337 595H377L98 140H28Z" />
<glyph unicode="_" horiz-adv-x="505" d="M-41 -53L-32 0H457L449 -53H-41Z" />
<glyph unicode="`" horiz-adv-x="500" d="M310 551L169 753H254L368 551H310Z" />
<glyph unicode="a" horiz-adv-x="600" d="M237 -9Q168 -9 121 23T55 117T49 264Q63 345 98 400T187 483T307 511Q373 511 418 477T473 385L462 383L491 502H569Q562 473 555 444T543 386L482 0H401L420 120H435Q409 60 359 26T237 -9ZM259 57Q328 57 378 106T443
249Q459 347 423 396T314 446Q244 446 195 397T130 254Q115 156 150 107T259 57Z" />
<glyph unicode="b" horiz-adv-x="600" d="M294 -9Q227 -9 183 25T128 118L138 120L119 0H39L156 736H237L181 385L166 383Q192 442 242 476T364 511Q434 511 480 479T546 386T551 239Q538 159 503 104T414 20T294 -9ZM287 57Q357 57 406 106T470 249Q486 347 451
396T342 446Q273 446 223 397T158 254Q143 156 178 107T287 57Z" />
<glyph unicode="c" horiz-adv-x="495" d="M258 -9Q183 -9 131 23T58 117T49 264Q62 344 99 399T193 483T321 511Q369 511 411 496T481 452L449 396Q423 421 390 433T324 445Q249 445 198 397T131 256Q116 161 153 110T268 58Q303 58 341 71T411 114L440 56Q408
26 358 9T258 -9Z" />
<glyph unicode="d" horiz-adv-x="600" d="M237 -9Q168 -9 121 23T55 117T49 264Q62 345 98 400T187 483T307 511Q373 511 418 477T473 385H462L518 736H599L482 0H402L421 120H435Q409 60 359 26T237 -9ZM259 57Q328 57 378 106T443 249Q459 347 423 396T314 446Q244
446 195 397T130 254Q115 156 150 107T259 57Z" />
<glyph unicode="e" horiz-adv-x="544" d="M273 -9Q190 -9 136 24T59 120T50 267Q63 344 98 398T189 482T316 511Q385 511 430 481T494 398T502 273L498 244H109L117 295H453L435 281Q447 363 416 407T312 451Q259 451 221 428T160 364T129 272L126 248Q113 156
152 107T281 57Q325 57 367 70T445 115L473 58Q433 26 381 9T273 -9Z" />
<glyph unicode="f" horiz-adv-x="338" d="M65 0L134 439H36L46 502H166L141 481L156 572Q169 654 218 697T351 740Q370 740 390 737T423 727L412 660Q401 665 386 668T352 672Q321 672 297 660T256 622T234 558L223 485L212 502H366L355 439H215L146 0H65Z" />
<glyph unicode="g" horiz-adv-x="603" d="M228 -223Q164 -223 112 -207T21 -158L50 -97Q77 -119 105 -132T164 -151T231 -158Q307 -158 350 -119T405 -8L428 139H439Q415 80 363 46T242 12Q173 12 126 44T59 136T51 274Q64 351 99 403T189 483T309 511Q378 511
423 477T476 383L468 393L495 502H573Q565 473 558 444T547 386L486 3Q469 -109 404 -166T228 -223ZM261 77Q334 77 383 125T446 261Q460 350 425 398T318 446Q245 446 195 398T131 262Q117 174 152 126T261 77Z" />
<glyph unicode="h" horiz-adv-x="586" d="M39 0L156 736H237L181 391H167Q197 450 249 480T369 511Q462 511 498 459T518 306L470 0H389L437 305Q449 380 425 412T340 445Q269 445 223 402T166 289L120 0H39Z" />
<glyph unicode="i" horiz-adv-x="238" d="M39 0L118 502H199L120 0H39ZM127 616L142 707H241L226 616H127Z" />
<glyph unicode="j" horiz-adv-x="238" d="M-62 -220Q-76 -220 -96 -217T-130 -208L-118 -140Q-107 -144 -92 -147T-63 -151Q-21 -151 4 -125T38 -38L124 502H205L118 -46Q104 -132 59 -176T-62 -220ZM132 616L147 707H246L232 616H132Z" />
<glyph unicode="k" horiz-adv-x="515" d="M39 0L156 736H237L164 279H166L430 502H536L224 240V281L483 0H382L159 236H157L120 0H39Z" />
<glyph unicode="l" horiz-adv-x="238" d="M39 0L156 736H237L120 0H39Z" />
<glyph unicode="m" horiz-adv-x="878" d="M39 0L100 386Q104 414 106 443T110 502H189L181 392H167Q196 451 243 481T353 511Q415 511 452 480T491 388H477Q504 443 556 477T671 511Q755 511 791 462T811 304L763 0H682L731 309Q742 380 722 412T645 445Q582 445
540 402T486 285L441 0H360L409 309Q420 380 400 412T323 445Q260 445 219 402T165 285L120 0H39Z" />
<glyph unicode="n" horiz-adv-x="586" d="M39 0L100 386Q104 414 106 443T110 502H189L181 392L167 391Q197 450 249 480T369 511Q462 511 498 459T518 306L470 0H389L437 305Q449 380 425 412T340 445Q269 445 223 402T166 289L120 0H39Z" />
<glyph unicode="o" horiz-adv-x="571" d="M252 -9Q177 -9 127 23T57 116T49 264Q62 344 99 399T193 483T319 511Q395 511 444 479T514 387T521 239Q508 159 471 104T378 20T252 -9ZM258 57Q327 57 376 106T441 249Q457 347 421 396T313 446Q243 446 194 397T130
254Q115 156 149 107T258 57Z" />
<glyph unicode="p" horiz-adv-x="600" d="M5 -216L100 386Q104 414 106 443T110 502H189L180 383H166Q192 442 242 476T364 511Q434 511 480 479T546 386T551 239Q538 159 503 104T414 20T294 -9Q227 -9 183 25T128 118H139L86 -216H5ZM287 57Q357 57 406 106T470
249Q486 347 451 396T342 446Q273 446 223 397T158 254Q143 156 178 107T287 57Z" />
<glyph unicode="q" horiz-adv-x="600" d="M367 -216L420 118L435 120Q409 60 359 26T237 -9Q168 -9 121 23T55 117T49 264Q63 345 98 400T187 483T307 511Q373 511 418 477T473 385L462 383L491 502H569Q562 473 555 444T543 386L448 -216H367ZM259 57Q328 57
378 106T443 249Q459 347 423 396T314 446Q244 446 195 397T130 254Q115 156 150 107T259 57Z" />
<glyph unicode="r" horiz-adv-x="363" d="M37 0L98 381Q103 411 106 442T110 502H189L181 380L165 379Q182 424 210 453T276 496T351 511Q364 511 375 510T398 506L384 433Q372 438 360 439T331 441Q286 441 251 422T194 370T166 296L119 0H37Z" />
<glyph unicode="s" horiz-adv-x="496" d="M213 -9Q156 -9 106 6T27 48L56 105Q89 81 130 68T218 54Q276 54 310 75T350 132Q355 163 338 183T278 211L206 222Q132 234 103 274T83 372Q90 416 118 447T191 494T288 511Q343 511 387 497T458 458L427 402Q401 424
365 436T288 449Q231 449 198 426T159 368Q154 336 169 315T223 287L297 274Q373 261 403 225T425 131Q419 88 391 57T317 8T213 -9Z" />
<glyph unicode="t" horiz-adv-x="350" d="M224 -9Q143 -9 111 34T91 162L134 439H36L46 502H145L167 639L251 662L226 502H370L359 439H215L174 172Q164 113 180 87T238 60Q257 60 272 63T300 72L290 4Q274 -2 258 -5T224 -9Z" />
<glyph unicode="u" horiz-adv-x="577" d="M223 -9Q135 -9 93 41T67 196L115 502H196L148 200Q137 125 161 92T245 58Q313 58 357 101T412 217L457 502H538L459 0H380L397 113H412Q384 55 335 23T223 -9Z" />
<glyph unicode="v" horiz-adv-x="531" d="M187 0L52 502H136L247 60H219L472 502H558L264 0H187Z" />
<glyph unicode="w" horiz-adv-x="869" d="M173 0L67 502H149L234 60H208L439 502H508L595 60H570L797 502H881L615 0H537L445 449H487L252 0H173Z" />
<glyph unicode="x" horiz-adv-x="535" d="M-32 0L238 279L237 239L65 502H157L286 297H257L449 502H551L299 240L301 277L480 0H385L248 219H278L70 0H-32Z" />
<glyph unicode="y" horiz-adv-x="531" d="M-15 -227L-30 -160Q19 -149 53 -135T112 -96T159 -36L193 23L189 -11L51 502H136L247 61H221L471 502H558L241 -42Q212 -90 184 -122T124 -175T59 -208T-15 -227Z" />
<glyph unicode="z" horiz-adv-x="519" d="M10 0L18 54L416 460L413 439H79L89 502H503L494 448L95 40L98 63H446L435 0H10Z" />
<glyph unicode="{" horiz-adv-x="355" d="M202 -180Q161 -180 135 -168T100 -132T95 -77L130 149Q136 190 125 208T72 229L43 232L53 294L83 296Q123 299 141 317T166 376L202 602Q211 653 239 679T316 705H419L408 641H333Q311 641 298 630T281 596L245 368Q240
332 222 308T181 273T137 261V265Q158 265 177 254T206 218T211 158L176 -71Q172 -94 180 -105T212 -116H289L279 -180H202Z" />
<glyph unicode="|" horiz-adv-x="264" d="M23 -180L163 705H244L104 -180H23Z" />
<glyph unicode="}" horiz-adv-x="355" d="M-61 -180L-51 -116H25Q46 -116 59 -105T77 -71L113 157Q119 194 136 217T177 252T221 264L222 260Q201 260 182 272T153 308T148 368L183 596Q187 619 178 630T147 641H70L80 705H156Q199 705 224 693T260 657T264 602L229
376Q223 335 234 317T286 296L314 294L305 231L276 229Q235 227 217 208T193 149L157 -77Q148 -128 120 -154T43 -180H-61Z" />
<glyph unicode="~" horiz-adv-x="600" d="M420 217Q386 217 354 231T294 260Q267 276 244 286T197 297Q164 297 141 279T101 232L55 262Q81 308 113 333T191 358Q226 358 259 344T321 313Q348 299 370 288T414 277Q448 277 471 296T511 343L557 312Q531 267 498
242T420 217Z" />
<glyph unicode="&#xa0;" horiz-adv-x="261" />
<glyph unicode="&#xa1;" horiz-adv-x="228" d="M-5 -180L100 319H150L95 -180H-5ZM86 400L102 502H205L189 400H86Z" />
<glyph unicode="&#xa2;" horiz-adv-x="600" d="M224 -115L244 16L258 -5Q198 4 156 35T97 121T93 251Q105 325 138 375T221 455T336 490L315 464L338 606H407L384 467L371 491Q417 490 458 476T524 433L493 378Q466 403 433 414T368 425Q293 425 242 379T175 246Q165
187 178 145T226 81T312 58Q347 58 384 70T455 111L483 54Q450 24 397 7T290 -9L312 13L292 -115H224Z" />
<glyph unicode="&#xa3;" horiz-adv-x="600" d="M6 0L15 58Q66 77 97 104T135 175L160 326H57L66 381H168L189 510Q201 578 232 623T313 691T431 714Q492 714 540 696T620 642L585 583Q553 613 519 628T433 644Q363 644 323 611T272 506L251 381H436L427 326H243L222
199Q214 144 186 112T117 64L118 70H534L523 0H6Z" />
<glyph unicode="&#xa4;" horiz-adv-x="600" d="M112 -26L70 18L143 93Q120 125 107 164T94 245Q94 288 107 327T143 397L70 473L112 516L186 440Q217 465 255 479T335 493Q376 493 413 480T481 442L553 517L598 472L524 398Q549 366 562 327T575 245Q575 202 562
163T524 92L597 18L554 -25L482 49Q451 25 414 11T335 -3Q293 -3 255 11T186 49L112 -26ZM334 67Q381 67 418 91T478 155T501 245Q501 294 479 334T419 399T334 423Q288 423 250 399T190 335T167 245Q167 196 189 156T250 91T334 67Z" />
<glyph unicode="&#xa5;" horiz-adv-x="600" d="M219 0L247 178H61L69 232H256L271 331H85L93 385H254L252 374L67 705H155L329 390H307L581 705H677L387 374L389 385H549L540 331H354L338 232H525L516 178H330L301 0H219Z" />
<glyph unicode="&#xa6;" horiz-adv-x="264" d="M110 372L163 705H244L191 372H110ZM23 -180L76 153H157L104 -180H23Z" />
<glyph unicode="&#xa7;" horiz-adv-x="542" d="M201 -189Q134 -189 80 -172T-13 -122L20 -66Q42 -87 69 -100T130 -120T199 -127Q268 -127 307 -92T346 -5Q346 34 328 56T268 103L166 163Q128 186 102 210T62 262T48 319Q48 364 71 403T138 470L135 458Q128 475
125 491T121 526Q121 583 151 625T233 690T347 714Q404 714 454 698T542 648L513 593Q484 621 439 636T349 652Q279 652 240 617T201 530Q201 491 218 468T279 419L378 362Q418 339 445 314T485 263T498 206Q498 161 475 122T408 55L410 69Q419 53 422 36T426 0Q426
-57 396 -99T315 -165T201 -189ZM123 332Q123 300 146 274T213 221L303 168Q331 150 352 134T387 97L376 99Q400 120 412 145T424 193Q424 225 401 251T331 304L245 354Q217 372 196 388T161 426L172 428Q148 407 136 382T123 332Z" />
<glyph unicode="&#xa8;" horiz-adv-x="500" d="M350 609L363 695H450L436 609H350ZM176 609L189 695H275L263 609H176Z" />
<glyph unicode="&#xa9;" horiz-adv-x="815" d="M429 -9Q353 -9 287 18T172 95T95 211T67 353Q67 430 94 495T171 610T286 686T429 714Q506 714 571 687T686 610T762 496T790 353Q790 277 763 211T686 96T572 19T429 -9ZM442 137Q345 137 290 197T234 356Q234 454
289 511T442 568Q482 568 521 554T585 515L561 463Q534 487 505 498T445 509Q380 509 343 469T306 355Q306 282 343 240T445 197Q475 197 504 208T561 243L585 190Q560 166 520 152T442 137ZM429 35Q496 35 553 59T653 126T720 227T744 353Q744 421 720 478T654
579T554 646T429 670Q361 670 304 646T204 579T137 479T113 353Q113 285 137 228T203 127T303 59T429 35Z" />
<glyph unicode="&#xaa;" horiz-adv-x="326" d="M160 411Q127 411 105 423T71 456T64 506Q69 537 89 554T142 579T216 587H292L286 551H210Q170 551 148 540T121 505Q118 482 130 468T174 453Q213 453 242 477T278 546L287 603Q292 636 277 652T222 669Q197 669
169 662T116 640L101 682Q127 697 162 705T230 714Q294 714 322 684T340 591L312 416H259L268 470H265Q246 439 220 425T160 411Z" />
<glyph unicode="&#xab;" horiz-adv-x="445" d="M130 88L29 267L189 448H268L106 261L202 88H130ZM313 88L212 267L372 448H451L289 261L385 88H313Z" />
<glyph unicode="&#xac;" horiz-adv-x="600" d="M467 149L500 358H70L80 420H573L531 149H467Z" />
<glyph unicode="&#xad;" horiz-adv-x="428" d="M70 241L81 308H365L355 241H70Z" />
<glyph unicode="&#xae;" horiz-adv-x="815" d="M429 -9Q353 -9 287 18T172 95T95 211T67 353Q67 430 94 495T171 610T286 686T429 714Q506 714 571 687T686 610T762 496T790 353Q790 277 763 211T686 96T572 19T429 -9ZM429 35Q496 35 553 59T653 126T720 227T744
353Q744 421 720 478T654 579T554 646T429 670Q361 670 304 646T204 579T137 479T113 353Q113 285 137 228T203 127T303 59T429 35ZM284 142V564H456Q524 564 560 532T597 442Q597 384 561 354T458 323L470 333Q501 333 521 320T554 270L602 142H533L485 272Q475
297 457 305T412 314H338L351 324V142H284ZM351 368H447Q490 368 511 385T532 439Q532 476 512 493T447 510H351V368Z" />
<glyph unicode="&#xaf;" horiz-adv-x="500" d="M161 625L169 680H466L457 625H161Z" />
<glyph unicode="&#xb0;" horiz-adv-x="371" d="M236 416Q194 416 161 435T108 488T88 564Q88 606 107 639T160 691T236 711Q279 711 311 692T363 640T383 564Q383 522 364 489T312 436T236 416ZM236 471Q276 471 300 497T325 564Q325 605 301 631T236 657Q197
657 172 631T147 564Q147 523 172 497T236 471Z" />
<glyph unicode="&#xb1;" horiz-adv-x="600" d="M249 127L276 297H60L70 359H286L313 529H377L350 359H561L553 297H340L313 127H249ZM13 0L23 62H516L506 0H13Z" />
<glyph unicode="&#xb2;" horiz-adv-x="380" d="M57 282L65 332L231 478Q265 509 282 532T302 577Q308 614 291 632T237 650Q208 650 176 639T118 606L98 658Q129 683 168 696T250 709Q314 709 350 676T376 581Q372 555 353 524T293 456L149 331L145 341H357L347 282H57Z" />
<glyph unicode="&#xb3;" horiz-adv-x="380" d="M200 278Q151 278 113 291T52 328L75 378Q96 358 127 347T196 335Q234 335 260 351T292 404Q298 438 276 453T212 469H134L143 523H211Q252 523 278 540T310 591Q314 620 297 636T240 653Q207 653 173 641T115 607L96
659Q127 682 167 695T253 709Q320 709 353 679T379 595Q373 556 344 530T277 493L279 501Q321 495 343 467T358 392Q350 339 305 309T200 278Z" />
<glyph unicode="&#xb4;" horiz-adv-x="500" d="M268 551L402 753H490L327 551H268Z" />
<glyph unicode="&#xb5;" horiz-adv-x="570" d="M1 -216L113 502H194L148 197Q137 126 160 92T240 58Q311 58 353 104T408 227L450 502H531L454 0H375L392 112H400Q378 56 335 24T234 -9Q191 -9 160 7T113 56L118 58L83 -216H1Z" />
<glyph unicode="&#xb6;" horiz-adv-x="599" d="M182 -180L259 309Q205 309 166 331T105 393T84 480Q84 548 114 598T196 677T317 705H582L442 -180H377L507 642H377L247 -180H182Z" />
<glyph unicode="&#xb7;" horiz-adv-x="231" d="M60 223L76 325H179L163 223H60Z" />
<glyph unicode="&#xb8;" horiz-adv-x="500" d="M184 -192Q158 -192 135 -187T96 -173L114 -129Q131 -137 147 -141T186 -145Q214 -145 231 -135T248 -106Q248 -94 239 -87T213 -80Q203 -80 192 -81T165 -89L150 -73L180 20H231L206 -55L182 -49Q195 -46 206 -44T228
-42Q262 -42 283 -58T304 -105Q304 -144 270 -168T184 -192Z" />
<glyph unicode="&#xb9;" horiz-adv-x="380" d="M87 282L96 341H194L241 646L272 644L141 573L152 642L267 705H319L262 341H347L338 282H87Z" />
<glyph unicode="&#xba;" horiz-adv-x="341" d="M202 411Q158 411 127 429T81 483T74 569Q81 615 103 647T160 697T238 714Q282 714 313 696T359 643T365 557Q358 511 336 479T279 429T202 411ZM204 457Q244 457 272 484T308 563Q316 614 297 641T235 668Q195 668
167 642T131 563Q123 511 143 484T204 457Z" />
<glyph unicode="&#xbb;" horiz-adv-x="445" d="M90 88H11L173 276L77 448H149L250 269L90 88ZM271 88H192L354 276L258 448H330L431 269L271 88Z" />
<glyph unicode="&#xbc;" horiz-adv-x="896" d="M87 282L96 341H194L241 646L272 644L141 573L152 642L267 705H319L262 341H347L338 282H87ZM256 -9H181L720 714H796L256 -9ZM710 0L724 85H522L530 135L784 423H841L796 140H861L852 85H787L774 0H710ZM734 140L766
348H780L584 125L583 140H734Z" />
<glyph unicode="&#xbd;" horiz-adv-x="940" d="M87 282L96 341H194L241 646L272 644L141 573L152 642L267 705H319L262 341H347L338 282H87ZM256 -9H181L720 714H796L256 -9ZM572 0L580 50L746 196Q780 227 797 250T817 295Q823 332 806 350T752 368Q723 368 691
357T633 324L613 376Q644 401 683 414T765 427Q829 427 865 394T891 299Q887 273 868 242T808 174L664 49L660 59H872L862 0H572Z" />
<glyph unicode="&#xbe;" horiz-adv-x="896" d="M200 278Q151 278 113 291T52 328L75 378Q96 358 127 347T196 335Q234 335 260 351T292 404Q298 438 276 453T212 469H134L143 523H211Q252 523 278 540T310 591Q314 620 297 636T240 653Q207 653 173 641T115 607L96
659Q127 682 167 695T253 709Q320 709 353 679T379 595Q373 556 344 530T277 493L279 501Q321 495 343 467T358 392Q350 339 305 309T200 278ZM256 -9H181L720 714H796L256 -9ZM710 0L724 85H522L530 135L784 423H841L796 140H861L852 85H787L774 0H710ZM734 140L766
348H780L584 125L583 140H734Z" />
<glyph unicode="&#xbf;" horiz-adv-x="448" d="M152 -208Q101 -208 63 -192T4 -145T-17 -75Q-17 -31 1 6T49 75T109 133Q167 185 192 222T228 297L235 319H286L282 293Q277 260 265 230T228 168T161 97Q139 76 118 51T82 -2T68 -61Q68 -97 95 -117T171 -137Q212
-137 249 -126T321 -98L309 -173Q274 -191 233 -199T152 -208ZM342 502L325 400H223L239 502H342Z" />
<glyph unicode="&#xc0;" horiz-adv-x="735" d="M-22 0L401 705H473L677 0H595L539 201L572 180H142L185 201L67 0H-22ZM424 610L203 230L182 248H553L532 230L427 610H424ZM417 765L284 937H374L479 765H417Z" />
<glyph unicode="&#xc1;" horiz-adv-x="735" d="M-22 0L401 705H473L677 0H595L539 201L572 180H142L185 201L67 0H-22ZM424 610L203 230L182 248H553L532 230L427 610H424ZM417 765L548 937H640L479 765H417Z" />
<glyph unicode="&#xc2;" horiz-adv-x="735" d="M-22 0L401 705H473L677 0H595L539 201L572 180H142L185 201L67 0H-22ZM424 610L203 230L182 248H553L532 230L427 610H424ZM278 765L419 937H495L600 765H539L453 884L339 765H278Z" />
<glyph unicode="&#xc3;" horiz-adv-x="735" d="M-22 0L401 705H473L677 0H595L539 201L572 180H142L185 201L67 0H-22ZM424 610L203 230L182 248H553L532 230L427 610H424ZM283 783L237 786Q248 850 281 884T364 919Q393 919 418 906T467 877Q487 864 505 854T542
843Q572 843 590 863T619 922L665 919Q654 855 621 821T539 786Q510 786 484 799T435 828Q416 841 397 851T360 862Q330 862 312 842T283 783Z" />
<glyph unicode="&#xc4;" horiz-adv-x="735" d="M-22 0L401 705H473L677 0H595L539 201L572 180H142L185 201L67 0H-22ZM424 610L203 230L182 248H553L532 230L427 610H424ZM497 806L511 892H597L583 806H497ZM323 806L337 892H423L409 806H323Z" />
<glyph unicode="&#xc5;" horiz-adv-x="735" d="M-22 0L401 705H473L677 0H595L539 201L572 180H142L185 201L67 0H-22ZM424 610L203 230L182 248H553L532 230L427 610H424ZM462 758Q430 758 403 773T360 815T344 874Q344 907 359 932T402 973T462 989Q496 989
523 974T565 933T581 874Q581 842 566 816T523 774T462 758ZM462 801Q495 801 514 822T534 874Q534 904 515 925T462 946Q431 946 411 925T391 874Q391 843 411 822T462 801Z" />
<glyph unicode="&#xc6;" horiz-adv-x="1006" d="M-42 0L500 705H1028L1016 637H617L642 659L623 370L609 392H957L946 323H605L619 333L601 45L593 69H927L916 0H520L533 196L557 180H172L208 202L54 0H-42ZM534 636L227 229L218 249H548L536 227L564 636H534Z" />
<glyph unicode="&#xc7;" horiz-adv-x="684" d="M372 -9Q257 -9 186 38T89 169T79 365Q97 477 148 554T278 673T459 714Q531 714 586 693T681 633L647 565Q604 606 560 622T455 639Q337 639 262 565T166 356Q152 269 170 204T240 102T379 66Q435 66 488 85T589
147L618 81Q571 38 506 15T372 -9ZM331 -192Q305 -192 282 -187T243 -173L261 -129Q278 -137 294 -141T333 -145Q361 -145 378 -135T395 -106Q395 -94 386 -87T360 -80Q350 -80 339 -81T312 -89L297 -73L327 20H378L353 -55L329 -49Q342 -46 353 -44T375 -42Q409
-42 430 -58T451 -105Q451 -144 417 -168T331 -192Z" />
<glyph unicode="&#xc8;" horiz-adv-x="588" d="M48 0L160 705H610L599 637H229L191 392H538L527 323H180L139 69H509L498 0H48ZM379 765L246 937H336L441 765H379Z" />
<glyph unicode="&#xc9;" horiz-adv-x="588" d="M48 0L160 705H610L599 637H229L191 392H538L527 323H180L139 69H509L498 0H48ZM379 765L510 937H602L441 765H379Z" />
<glyph unicode="&#xca;" horiz-adv-x="588" d="M48 0L160 705H610L599 637H229L191 392H538L527 323H180L139 69H509L498 0H48ZM241 765L382 937H458L563 765H502L416 884L302 765H241Z" />
<glyph unicode="&#xcb;" horiz-adv-x="588" d="M48 0L160 705H610L599 637H229L191 392H538L527 323H180L139 69H509L498 0H48ZM459 806L473 892H559L545 806H459ZM285 806L299 892H385L371 806H285Z" />
<glyph unicode="&#xcc;" horiz-adv-x="259" d="M48 0L160 705H243L131 0H48ZM180 765L47 937H137L242 765H180Z" />
<glyph unicode="&#xcd;" horiz-adv-x="259" d="M48 0L160 705H243L131 0H48ZM180 765L311 937H403L242 765H180Z" />
<glyph unicode="&#xce;" horiz-adv-x="259" d="M48 0L160 705H243L131 0H48ZM42 765L183 937H259L364 765H303L217 884L103 765H42Z" />
<glyph unicode="&#xcf;" horiz-adv-x="259" d="M48 0L160 705H243L131 0H48ZM261 806L275 892H361L347 806H261ZM87 806L101 892H187L173 806H87Z" />
<glyph unicode="&#xd0;" horiz-adv-x="747" d="M48 0L160 705H386Q509 705 584 662T688 537T699 341Q681 227 627 151T487 38T284 0H48ZM142 71H287Q431 71 512 139T616 350Q638 494 579 564T375 635H231L142 71ZM14 326L24 390H391L381 326H14Z" />
<glyph unicode="&#xd1;" horiz-adv-x="747" d="M48 0L160 705H225L578 102L559 105L654 705H731L619 0H555L202 603L220 600L125 0H48ZM293 783L247 786Q258 850 291 884T374 919Q403 919 428 906T477 877Q497 864 515 854T552 843Q582 843 600 863T629 922L675
919Q664 855 631 821T549 786Q520 786 494 799T445 828Q426 841 407 851T370 862Q340 862 322 842T293 783Z" />
<glyph unicode="&#xd2;" horiz-adv-x="772" d="M80 365Q98 477 147 554T274 673T450 714Q555 714 622 667T716 535T724 340Q707 229 657 151T530 32T353 -9Q249 -9 182 38T89 169T80 365ZM166 355Q151 265 169 200T235 100T360 64Q475 64 546 140T639 350Q653
440 635 505T568 606T444 641Q328 641 258 566T166 355ZM437 765L304 937H394L499 765H437Z" />
<glyph unicode="&#xd3;" horiz-adv-x="772" d="M80 365Q98 477 147 554T274 673T450 714Q555 714 622 667T716 535T724 340Q707 229 657 151T530 32T353 -9Q249 -9 182 38T89 169T80 365ZM166 355Q151 265 169 200T235 100T360 64Q475 64 546 140T639 350Q653
440 635 505T568 606T444 641Q328 641 258 566T166 355ZM437 765L568 937H660L499 765H437Z" />
<glyph unicode="&#xd4;" horiz-adv-x="772" d="M80 365Q98 477 147 554T274 673T450 714Q555 714 622 667T716 535T724 340Q707 229 657 151T530 32T353 -9Q249 -9 182 38T89 169T80 365ZM166 355Q151 265 169 200T235 100T360 64Q475 64 546 140T639 350Q653
440 635 505T568 606T444 641Q328 641 258 566T166 355ZM299 765L440 937H516L621 765H560L474 884L360 765H299Z" />
<glyph unicode="&#xd5;" horiz-adv-x="772" d="M80 365Q98 477 147 554T274 673T450 714Q555 714 622 667T716 535T724 340Q707 229 657 151T530 32T353 -9Q249 -9 182 38T89 169T80 365ZM166 355Q151 265 169 200T235 100T360 64Q475 64 546 140T639 350Q653
440 635 505T568 606T444 641Q328 641 258 566T166 355ZM304 783L258 786Q269 850 302 884T385 919Q414 919 439 906T488 877Q508 864 526 854T563 843Q593 843 611 863T640 922L686 919Q675 855 642 821T560 786Q531 786 505 799T456 828Q437 841 418 851T381
862Q351 862 333 842T304 783Z" />
<glyph unicode="&#xd6;" horiz-adv-x="772" d="M80 365Q98 477 147 554T274 673T450 714Q555 714 622 667T716 535T724 340Q707 229 657 151T530 32T353 -9Q249 -9 182 38T89 169T80 365ZM166 355Q151 265 169 200T235 100T360 64Q475 64 546 140T639 350Q653
440 635 505T568 606T444 641Q328 641 258 566T166 355ZM517 806L531 892H617L603 806H517ZM343 806L357 892H443L429 806H343Z" />
<glyph unicode="&#xd7;" horiz-adv-x="600" d="M108 50L64 94L273 286L101 474L146 519L319 329L526 519L569 474L361 283L532 94L488 50L315 240L108 50Z" />
<glyph unicode="&#xd8;" horiz-adv-x="772" d="M80 365Q98 477 147 554T274 673T450 714Q555 714 622 667T716 535T724 340Q707 229 657 151T530 32T353 -9Q249 -9 182 38T89 169T80 365ZM166 355Q151 265 169 200T235 100T360 64Q475 64 546 140T639 350Q653
440 635 505T568 606T444 641Q328 641 258 566T166 355ZM224 58L156 -35L103 2L172 95L204 132L561 611L584 648L653 740L705 703L636 611L605 574L247 94L224 58Z" />
<glyph unicode="&#xd9;" horiz-adv-x="730" d="M334 -9Q242 -9 182 23T98 120T88 281L156 705H238L171 282Q154 173 193 119T341 64Q437 64 494 115T571 283L638 705H720L652 277Q636 178 596 115T490 21T334 -9ZM417 765L284 937H374L479 765H417Z" />
<glyph unicode="&#xda;" horiz-adv-x="730" d="M334 -9Q242 -9 182 23T98 120T88 281L156 705H238L171 282Q154 173 193 119T341 64Q437 64 494 115T571 283L638 705H720L652 277Q636 178 596 115T490 21T334 -9ZM417 765L548 937H640L479 765H417Z" />
<glyph unicode="&#xdb;" horiz-adv-x="730" d="M334 -9Q242 -9 182 23T98 120T88 281L156 705H238L171 282Q154 173 193 119T341 64Q437 64 494 115T571 283L638 705H720L652 277Q636 178 596 115T490 21T334 -9ZM279 765L420 937H496L601 765H540L454 884L340 765H279Z" />
<glyph unicode="&#xdc;" horiz-adv-x="730" d="M334 -9Q242 -9 182 23T98 120T88 281L156 705H238L171 282Q154 173 193 119T341 64Q437 64 494 115T571 283L638 705H720L652 277Q636 178 596 115T490 21T334 -9ZM498 806L512 892H598L584 806H498ZM324 806L338
892H424L410 806H324Z" />
<glyph unicode="&#xdd;" horiz-adv-x="607" d="M222 0L274 329L283 273L61 705H152L328 354H307L594 705H690L330 271L357 329L305 0H222ZM355 765L486 937H578L417 765H355Z" />
<glyph unicode="&#xde;" horiz-adv-x="652" d="M48 0L160 705H243L221 570H417Q532 570 585 513T622 356Q613 296 580 254T494 189T369 166H157L131 0H48ZM168 235H363Q441 235 485 267T541 363Q552 431 518 466T405 502H210L168 235Z" />
<glyph unicode="&#xdf;" horiz-adv-x="634" d="M39 0L117 493Q137 618 203 680T386 742Q448 742 491 722T555 661T565 563Q560 524 538 488T474 420T361 362V379Q447 354 499 322T573 247T586 149Q578 100 550 65T478 10T376 -9Q338 -9 305 -2T246 17T200 45L227
103Q261 79 297 67T375 54Q431 54 466 80T508 156Q514 192 498 222T432 280T289 333L300 398Q368 421 407 447T466 502T489 564Q498 618 471 648T380 679Q302 679 258 636T199 502L120 0H39Z" />
<glyph unicode="&#xe0;" horiz-adv-x="600" d="M237 -9Q168 -9 121 23T55 117T49 264Q63 345 98 400T187 483T307 511Q373 511 418 477T473 385L462 383L491 502H569Q562 473 555 444T543 386L482 0H401L420 120H435Q409 60 359 26T237 -9ZM259 57Q328 57 378
106T443 249Q459 347 423 396T314 446Q244 446 195 397T130 254Q115 156 150 107T259 57ZM311 551L170 753H255L369 551H311Z" />
<glyph unicode="&#xe1;" horiz-adv-x="600" d="M237 -9Q168 -9 121 23T55 117T49 264Q63 345 98 400T187 483T307 511Q373 511 418 477T473 385L462 383L491 502H569Q562 473 555 444T543 386L482 0H401L420 120H435Q409 60 359 26T237 -9ZM259 57Q328 57 378
106T443 249Q459 347 423 396T314 446Q244 446 195 397T130 254Q115 156 150 107T259 57ZM312 551L446 753H534L371 551H312Z" />
<glyph unicode="&#xe2;" horiz-adv-x="600" d="M237 -9Q168 -9 121 23T55 117T49 264Q63 345 98 400T187 483T307 511Q373 511 418 477T473 385L462 383L491 502H569Q562 473 555 444T543 386L482 0H401L420 120H435Q409 60 359 26T237 -9ZM259 57Q328 57 378
106T443 249Q459 347 423 396T314 446Q244 446 195 397T130 254Q115 156 150 107T259 57ZM191 551L322 753H399L488 551H432L357 699L248 551H191Z" />
<glyph unicode="&#xe3;" horiz-adv-x="600" d="M237 -9Q168 -9 121 23T55 117T49 264Q63 345 98 400T187 483T307 511Q373 511 418 477T473 385L462 383L491 502H569Q562 473 555 444T543 386L482 0H401L420 120H435Q409 60 359 26T237 -9ZM259 57Q328 57 378
106T443 249Q459 347 423 396T314 446Q244 446 195 397T130 254Q115 156 150 107T259 57ZM213 590L167 593Q178 657 208 691T283 726Q310 726 327 713T361 685Q375 671 389 661T419 650Q470 650 488 729L535 726Q525 662 495 628T420 593Q394 593 375 606T340 635Q327
648 314 658T283 669Q257 669 240 649T213 590Z" />
<glyph unicode="&#xe4;" horiz-adv-x="600" d="M237 -9Q168 -9 121 23T55 117T49 264Q63 345 98 400T187 483T307 511Q373 511 418 477T473 385L462 383L491 502H569Q562 473 555 444T543 386L482 0H401L420 120H435Q409 60 359 26T237 -9ZM259 57Q328 57 378
106T443 249Q459 347 423 396T314 446Q244 446 195 397T130 254Q115 156 150 107T259 57ZM395 609L408 695H495L481 609H395ZM221 609L234 695H320L308 609H221Z" />
<glyph unicode="&#xe5;" horiz-adv-x="600" d="M237 -9Q168 -9 121 23T55 117T49 264Q63 345 98 400T187 483T307 511Q373 511 418 477T473 385L462 383L491 502H569Q562 473 555 444T543 386L482 0H401L420 120H435Q409 60 359 26T237 -9ZM259 57Q328 57 378
106T443 249Q459 347 423 396T314 446Q244 446 195 397T130 254Q115 156 150 107T259 57ZM360 547Q327 547 300 562T257 603T241 662Q241 695 257 721T300 762T360 778Q394 778 420 763T463 721T479 662Q479 630 463 604T421 562T360 547ZM360 590Q392 590 412
611T432 662Q432 693 412 713T360 734Q329 734 309 714T288 663Q288 632 308 611T360 590Z" />
<glyph unicode="&#xe6;" horiz-adv-x="882" d="M209 -9Q150 -9 111 13T54 74T44 158Q54 211 92 240T198 282T358 294H409L402 243H349Q281 243 232 236T155 208T120 151Q113 107 139 80T220 52Q264 52 299 71T356 125T386 206L404 321Q414 387 386 416T305 446Q256
446 214 434T126 395L100 453Q129 472 163 485T235 504T308 511Q389 511 428 479T471 386H444Q479 447 535 479T658 511Q726 511 770 481T832 398T841 273L836 244H456L463 295H791L773 281Q785 363 755 407T653 451Q603 451 566 428T505 364T475 272L472 248Q459
156 498 107T623 57Q665 57 705 70T783 115L811 58Q773 26 721 9T615 -9Q526 -9 473 32T403 148H425Q398 75 343 33T209 -9Z" />
<glyph unicode="&#xe7;" horiz-adv-x="495" d="M258 -9Q183 -9 131 23T58 117T49 264Q62 344 99 399T193 483T321 511Q369 511 411 496T481 452L449 396Q423 421 390 433T324 445Q249 445 198 397T131 256Q116 161 153 110T268 58Q303 58 341 71T411 114L440 56Q408
26 358 9T258 -9ZM227 -192Q201 -192 178 -187T139 -173L157 -129Q174 -137 190 -141T229 -145Q257 -145 274 -135T291 -106Q291 -94 282 -87T256 -80Q246 -80 235 -81T208 -89L193 -73L223 20H274L249 -55L225 -49Q238 -46 249 -44T271 -42Q305 -42 326 -58T347
-105Q347 -144 313 -168T227 -192Z" />
<glyph unicode="&#xe8;" horiz-adv-x="544" d="M273 -9Q190 -9 136 24T59 120T50 267Q63 344 98 398T189 482T316 511Q385 511 430 481T494 398T502 273L498 244H109L117 295H453L435 281Q447 363 416 407T312 451Q259 451 221 428T160 364T129 272L126 248Q113
156 152 107T281 57Q325 57 367 70T445 115L473 58Q433 26 381 9T273 -9ZM303 551L162 753H247L361 551H303Z" />
<glyph unicode="&#xe9;" horiz-adv-x="544" d="M273 -9Q190 -9 136 24T59 120T50 267Q63 344 98 398T189 482T316 511Q385 511 430 481T494 398T502 273L498 244H109L117 295H453L435 281Q447 363 416 407T312 451Q259 451 221 428T160 364T129 272L126 248Q113
156 152 107T281 57Q325 57 367 70T445 115L473 58Q433 26 381 9T273 -9ZM304 551L438 753H526L363 551H304Z" />
<glyph unicode="&#xea;" horiz-adv-x="544" d="M273 -9Q190 -9 136 24T59 120T50 267Q63 344 98 398T189 482T316 511Q385 511 430 481T494 398T502 273L498 244H109L117 295H453L435 281Q447 363 416 407T312 451Q259 451 221 428T160 364T129 272L126 248Q113
156 152 107T281 57Q325 57 367 70T445 115L473 58Q433 26 381 9T273 -9ZM183 551L314 753H391L480 551H424L349 699L240 551H183Z" />
<glyph unicode="&#xeb;" horiz-adv-x="544" d="M273 -9Q190 -9 136 24T59 120T50 267Q63 344 98 398T189 482T316 511Q385 511 430 481T494 398T502 273L498 244H109L117 295H453L435 281Q447 363 416 407T312 451Q259 451 221 428T160 364T129 272L126 248Q113
156 152 107T281 57Q325 57 367 70T445 115L473 58Q433 26 381 9T273 -9ZM387 609L400 695H487L473 609H387ZM213 609L226 695H312L300 609H213Z" />
<glyph unicode="&#xec;" horiz-adv-x="238" d="M39 0L118 502H199L120 0H39ZM136 551L-5 753H80L194 551H136Z" />
<glyph unicode="&#xed;" horiz-adv-x="238" d="M39 0L118 502H199L120 0H39ZM137 551L271 753H359L196 551H137Z" />
<glyph unicode="&#xee;" horiz-adv-x="238" d="M39 0L118 502H199L120 0H39ZM16 551L147 753H224L313 551H257L182 699L73 551H16Z" />
<glyph unicode="&#xef;" horiz-adv-x="238" d="M39 0L118 502H199L120 0H39ZM220 609L233 695H320L306 609H220ZM46 609L59 695H145L133 609H46Z" />
<glyph unicode="&#xf0;" horiz-adv-x="576" d="M252 -9Q179 -9 129 21T56 107T46 238Q56 304 91 354T181 431T303 459Q378 459 426 421T482 305H459Q473 393 451 471T370 606H393L183 523L165 565L347 637V624Q319 645 286 661T215 688L238 743Q296 730 341 708T422
656L401 659L526 708L544 666L439 625L441 638Q483 592 507 534T537 409T531 270Q517 180 480 118T386 24T252 -9ZM256 57Q328 57 377 102T438 224Q451 303 416 348T308 393Q236 393 188 350T126 226Q113 146 149 102T256 57Z" />
<glyph unicode="&#xf1;" horiz-adv-x="586" d="M39 0L100 386Q104 414 106 443T110 502H189L181 392L167 391Q197 450 249 480T369 511Q462 511 498 459T518 306L470 0H389L437 305Q449 380 425 412T340 445Q269 445 223 402T166 289L120 0H39ZM211 590L165 593Q176
657 206 691T281 726Q308 726 325 713T359 685Q373 671 387 661T417 650Q468 650 486 729L533 726Q523 662 493 628T418 593Q392 593 373 606T338 635Q325 648 312 658T281 669Q255 669 238 649T211 590Z" />
<glyph unicode="&#xf2;" horiz-adv-x="571" d="M252 -9Q177 -9 127 23T57 116T49 264Q62 344 99 399T193 483T319 511Q395 511 444 479T514 387T521 239Q508 159 471 104T378 20T252 -9ZM258 57Q327 57 376 106T441 249Q457 347 421 396T313 446Q243 446 194 397T130
254Q115 156 149 107T258 57ZM303 551L162 753H247L361 551H303Z" />
<glyph unicode="&#xf3;" horiz-adv-x="571" d="M252 -9Q177 -9 127 23T57 116T49 264Q62 344 99 399T193 483T319 511Q395 511 444 479T514 387T521 239Q508 159 471 104T378 20T252 -9ZM258 57Q327 57 376 106T441 249Q457 347 421 396T313 446Q243 446 194 397T130
254Q115 156 149 107T258 57ZM304 551L438 753H526L363 551H304Z" />
<glyph unicode="&#xf4;" horiz-adv-x="571" d="M252 -9Q177 -9 127 23T57 116T49 264Q62 344 99 399T193 483T319 511Q395 511 444 479T514 387T521 239Q508 159 471 104T378 20T252 -9ZM258 57Q327 57 376 106T441 249Q457 347 421 396T313 446Q243 446 194 397T130
254Q115 156 149 107T258 57ZM183 551L314 753H391L480 551H424L349 699L240 551H183Z" />
<glyph unicode="&#xf5;" horiz-adv-x="571" d="M252 -9Q177 -9 127 23T57 116T49 264Q62 344 99 399T193 483T319 511Q395 511 444 479T514 387T521 239Q508 159 471 104T378 20T252 -9ZM258 57Q327 57 376 106T441 249Q457 347 421 396T313 446Q243 446 194 397T130
254Q115 156 149 107T258 57ZM205 590L159 593Q170 657 200 691T275 726Q302 726 319 713T353 685Q367 671 381 661T411 650Q462 650 480 729L527 726Q517 662 487 628T412 593Q386 593 367 606T332 635Q319 648 306 658T275 669Q249 669 232 649T205 590Z" />
<glyph unicode="&#xf6;" horiz-adv-x="571" d="M252 -9Q177 -9 127 23T57 116T49 264Q62 344 99 399T193 483T319 511Q395 511 444 479T514 387T521 239Q508 159 471 104T378 20T252 -9ZM258 57Q327 57 376 106T441 249Q457 347 421 396T313 446Q243 446 194 397T130
254Q115 156 149 107T258 57ZM387 609L400 695H487L473 609H387ZM213 609L226 695H312L300 609H213Z" />
<glyph unicode="&#xf7;" horiz-adv-x="600" d="M53 256L63 318H557L547 256H53ZM218 45L232 131H318L304 45H218ZM282 443L295 529H381L368 443H282Z" />
<glyph unicode="&#xf8;" horiz-adv-x="571" d="M252 -9Q177 -9 127 23T57 116T49 264Q62 344 99 399T193 483T319 511Q395 511 444 479T514 387T521 239Q508 159 471 104T378 20T252 -9ZM258 57Q330 57 380 106T446 250Q462 345 425 395T313 446Q240 446 190 397T126
253Q111 159 145 108T258 57ZM112 -32L70 -1L462 533L503 503L112 -32Z" />
<glyph unicode="&#xf9;" horiz-adv-x="577" d="M223 -9Q135 -9 93 41T67 196L115 502H196L148 200Q137 125 161 92T245 58Q313 58 357 101T412 217L457 502H538L459 0H380L397 113H412Q384 55 335 23T223 -9ZM306 552L165 754H250L364 552H306Z" />
<glyph unicode="&#xfa;" horiz-adv-x="577" d="M223 -9Q135 -9 93 41T67 196L115 502H196L148 200Q137 125 161 92T245 58Q313 58 357 101T412 217L457 502H538L459 0H380L397 113H412Q384 55 335 23T223 -9ZM307 552L441 754H529L366 552H307Z" />
<glyph unicode="&#xfb;" horiz-adv-x="577" d="M223 -9Q135 -9 93 41T67 196L115 502H196L148 200Q137 125 161 92T245 58Q313 58 357 101T412 217L457 502H538L459 0H380L397 113H412Q384 55 335 23T223 -9ZM186 552L317 754H394L483 552H427L352 700L243 552H186Z" />
<glyph unicode="&#xfc;" horiz-adv-x="577" d="M223 -9Q135 -9 93 41T67 196L115 502H196L148 200Q137 125 161 92T245 58Q313 58 357 101T412 217L457 502H538L459 0H380L397 113H412Q384 55 335 23T223 -9ZM390 610L403 696H490L476 610H390ZM216 610L229 696H315L303
610H216Z" />
<glyph unicode="&#xfd;" horiz-adv-x="531" d="M-15 -227L-30 -160Q19 -149 53 -135T112 -96T159 -36L193 23L189 -11L51 502H136L247 61H221L471 502H558L241 -42Q212 -90 184 -122T124 -175T59 -208T-15 -227ZM283 551L417 753H505L342 551H283Z" />
<glyph unicode="&#xfe;" horiz-adv-x="600" d="M5 -216L156 736H237L181 385L166 383Q192 442 242 476T364 511Q434 511 480 479T546 386T551 239Q538 159 503 104T414 20T294 -9Q227 -9 183 25T128 118H139L86 -216H5ZM287 57Q357 57 406 106T470 249Q486 347
451 396T342 446Q273 446 223 397T158 254Q143 156 178 107T287 57Z" />
<glyph unicode="&#xff;" horiz-adv-x="531" d="M-15 -227L-30 -160Q19 -149 53 -135T112 -96T159 -36L193 23L189 -11L51 502H136L247 61H221L471 502H558L241 -42Q212 -90 184 -122T124 -175T59 -208T-15 -227ZM366 609L379 695H466L452 609H366ZM192 609L205
695H291L279 609H192Z" />
<glyph unicode="&#x2013;" horiz-adv-x="505" d="M0 248L8 301H512L505 248H0Z" />
<glyph unicode="&#x2014;" horiz-adv-x="1010" d="M0 248L8 301H1017L1010 248H0Z" />
<glyph unicode="&#x2018;" horiz-adv-x="228" d="M100 495L114 575Q119 603 126 625T149 669T190 711L223 676Q194 649 184 628T168 580L146 597H219L203 495H100Z" />
<glyph unicode="&#x2019;" horiz-adv-x="228" d="M147 489L114 524Q144 551 154 572T169 619L191 603H118L134 705H237L224 625Q220 598 212 575T188 531T147 489Z" />
<glyph unicode="&#x201a;" horiz-adv-x="228" d="M52 -114L19 -79Q48 -52 58 -31T74 17L97 0H23L39 102H142L128 22Q124 -5 116 -28T94 -72T52 -114Z" />
<glyph unicode="&#x201c;" horiz-adv-x="396" d="M100 495L114 575Q119 603 126 625T149 669T190 711L223 676Q194 649 184 628T168 580L146 597H219L203 495H100ZM268 495L282 575Q287 603 294 625T317 669T358 711L391 676Q362 649 352 628T336 580L314 597H387L371
495H268Z" />
<glyph unicode="&#x201d;" horiz-adv-x="396" d="M147 489L114 524Q144 551 154 572T169 619L191 603H118L134 705H237L224 625Q220 598 212 575T188 531T147 489ZM315 489L282 524Q312 551 322 572T337 619L359 603H286L302 705H405L392 625Q388 598 380 575T356
531T315 489Z" />
<glyph unicode="&#x201e;" horiz-adv-x="396" d="M52 -114L19 -79Q48 -52 58 -31T74 17L97 0H23L39 102H142L128 22Q124 -5 116 -28T94 -72T52 -114ZM220 -114L187 -79Q216 -52 226 -31T242 17L265 0H191L207 102H310L296 22Q292 -5 284 -28T262 -72T220 -114Z" />
<glyph unicode="&#x2022;" horiz-adv-x="529" d="M266 88Q217 88 176 111T110 175T85 266Q85 312 108 352T173 418T266 444Q314 444 355 421T422 358T447 266Q447 217 423 177T357 112T266 88Z" />
<glyph unicode="&#x2039;" horiz-adv-x="262" d="M130 88L29 267L189 448H268L106 261L202 88H130Z" />
<glyph unicode="&#x203a;" horiz-adv-x="262" d="M90 88H11L173 276L77 448H149L250 269L90 88Z" />
</font>
</defs>
</svg>
