<?xml version="1.0" standalone="no"?>
<!DOCTYPE svg PUBLIC "-//W3C//DTD SVG 1.1//EN" "http://www.w3.org/Graphics/SVG/1.1/DTD/svg11.dtd">
<svg xmlns="http://www.w3.org/2000/svg">
<defs >
<font id="Mulish" horiz-adv-x="581" ><font-face
    font-family="Mulish ExtraLight ExtraBold"
    units-per-em="1000"
    panose-1="0 0 0 0 0 0 0 0 0 0"
    ascent="1005"
    descent="-250"
    alphabetic="0" />
<glyph unicode=" " horiz-adv-x="282" />
<glyph unicode="!" horiz-adv-x="260" d="M84 223L37 705H223L175 223H84ZM49 0V160H211V0H49Z" />
<glyph unicode="&quot;" horiz-adv-x="481" d="M77 407L41 705H215L179 407H77ZM302 407L266 705H440L404 407H302Z" />
<glyph unicode="#" horiz-adv-x="600" d="M73 0L106 166H41V259H123L163 454H64V548H182L214 705H315L283 548H394L427 705H527L495 548H559V454H476L436 259H537V166H418L385 0H284L317 166H207L175 0H73ZM225 259H335L375 454H264L225 259Z" />
<glyph unicode="$" horiz-adv-x="600" d="M250 -115V18L277 -6Q228 -4 182 5T97 31T27 71L71 193Q117 160 175 141T297 122Q366 122 396 144T426 199Q426 226 405 243T332 272L222 296Q161 310 120 335T60 400T40 491Q40 551 69 598T151 674T275 709L250 693V820H369V693L344
711Q403 707 459 688T551 632L507 518Q470 550 421 566T315 583Q255 583 222 559T188 497Q188 469 208 452T279 423L388 399Q483 379 529 332T576 210Q576 151 547 106T467 32T348 -4L369 19V-115H250Z" />
<glyph unicode="%" horiz-adv-x="958" d="M336 0H208L622 705H750L336 0ZM220 285Q133 285 84 343T35 501Q35 601 84 658T220 716Q307 716 356 658T405 501Q405 402 356 344T220 285ZM220 378Q250 378 266 407T283 501Q283 567 267 594T220 621Q189 621 173 595T157
501Q157 434 173 406T220 378ZM738 -11Q651 -11 602 48T553 206Q553 306 602 363T738 420Q826 420 874 362T923 206Q923 107 875 48T738 -11ZM738 84Q769 84 785 112T802 206Q802 272 786 299T738 327Q708 327 692 300T675 206Q675 139 691 112T738 84Z" />
<glyph unicode="&amp;" horiz-adv-x="698" d="M662 -11Q616 2 573 28T491 86L523 85Q475 41 414 15T286 -11Q206 -11 148 14T58 83T26 186Q26 254 66 302T173 388L208 406L185 378Q144 417 123 457T102 541Q102 593 128 632T202 694T313 716Q369 716 410 696T475
640T499 555Q499 516 484 482T435 419T350 362L354 391L518 227H487Q513 268 527 320T544 429H669Q665 347 641 274T576 143L575 177Q603 149 637 129T710 97L662 -11ZM295 105Q339 105 374 121T438 168L435 135L229 336L292 335L264 321Q235 304 215 286T185 245T175
196Q175 154 206 130T295 105ZM313 616Q279 616 259 597T239 544Q239 527 245 511T267 478T305 435L271 434Q329 462 355 488T382 549Q382 582 363 599T313 616Z" />
<glyph unicode="&apos;" horiz-adv-x="256" d="M77 407L41 705H215L179 407H77Z" />
<glyph unicode="(" horiz-adv-x="378" d="M239 -180Q188 -107 158 -36T114 108T100 263Q100 345 113 418T157 562T239 705H358Q306 588 281 480T255 263Q255 155 280 47T358 -180H239Z" />
<glyph unicode=")" horiz-adv-x="378" d="M140 -180H20Q72 -63 97 46T123 263Q123 371 98 479T20 705H140Q191 633 221 562T265 418T278 263Q278 182 265 108T222 -37T140 -180Z" />
<glyph unicode="*" horiz-adv-x="459" d="M153 340L69 401L159 511L21 548L54 646L185 594L177 736H282L274 595L405 646L437 548L300 512L390 401L306 340L230 460L153 340Z" />
<glyph unicode="+" horiz-adv-x="600" d="M247 39V235H55V339H247V529H354V339H545V235H354V39H247Z" />
<glyph unicode="," horiz-adv-x="260" d="M121 -144L62 -97Q97 -62 112 -31T127 36L159 0H49V160H211V57Q211 19 203 -14T175 -79T121 -144Z" />
<glyph unicode="-" horiz-adv-x="444" d="M64 217V335H379V217H64Z" />
<glyph unicode="." horiz-adv-x="260" d="M49 0V160H211V0H49Z" />
<glyph unicode="/" horiz-adv-x="334" d="M96 -61H-26L238 755H360L96 -61Z" />
<glyph unicode="0" horiz-adv-x="600" d="M300 -11Q173 -11 105 84T36 355Q36 531 104 623T300 716Q428 716 496 624T564 356Q564 180 496 85T300 -11ZM300 115Q358 115 386 172T415 355Q415 439 403 490T365 566T300 590Q242 590 214 535T185 355Q185 272 198
219T236 141T300 115Z" />
<glyph unicode="1" horiz-adv-x="600" d="M101 0V128H261V575H334L118 449V595L306 705H417V128H567V0H101Z" />
<glyph unicode="2" horiz-adv-x="600" d="M73 0V115L297 348Q339 392 358 426T377 496Q377 541 348 564T265 587Q220 587 177 571T91 520L42 634Q86 672 151 694T286 716Q365 716 419 693T501 624T530 514Q530 449 500 390T403 265L223 88V128H557V0H73Z" />
<glyph unicode="3" horiz-adv-x="600" d="M285 -11Q211 -11 143 10T32 68L81 184Q126 151 176 135T279 118Q341 118 372 141T403 209Q403 251 374 272T286 294H168V417H272Q322 417 352 440T382 505Q382 545 354 566T273 587Q222 587 178 571T93 520L43 634Q88
673 152 694T288 716Q402 716 466 666T531 525Q531 463 496 419T400 359V372Q472 360 512 313T552 195Q552 99 481 44T285 -11Z" />
<glyph unicode="4" horiz-adv-x="600" d="M338 0V129H36V237L362 705H488V246H584V129H488V0H338ZM338 246V521H363L148 210V246H338Z" />
<glyph unicode="5" horiz-adv-x="600" d="M300 -11Q253 -11 207 -1T121 26T54 68L103 184Q148 152 197 135T297 118Q355 118 387 145T420 221Q420 269 389 298T304 327Q266 327 234 313T175 270H75V705H525V578H222V387H186Q211 418 252 435T344 452Q412 452 462
424T541 345T569 226Q569 156 537 103T444 19T300 -11Z" />
<glyph unicode="6" horiz-adv-x="600" d="M326 -11Q235 -11 172 31T75 152T42 343Q42 461 80 544T188 672T358 716Q415 716 471 697T570 640L520 525Q483 556 441 571T356 587Q274 587 231 533T188 372V307H175Q183 355 208 388T272 440T358 458Q418 458 465 429T540
348T567 230Q567 160 536 106T452 20T326 -11ZM318 110Q350 110 374 124T411 164T424 224Q424 258 411 283T374 323T318 338Q286 338 262 324T225 284T211 224Q211 190 224 164T262 124T318 110Z" />
<glyph unicode="7" horiz-adv-x="600" d="M70 0L409 625V575H47V705H554V589L241 0H70Z" />
<glyph unicode="8" horiz-adv-x="600" d="M300 -11Q174 -11 103 43T31 192Q31 267 76 316T192 374V348Q128 362 89 409T49 524Q49 614 116 665T300 716Q378 716 434 693T521 627T551 524Q551 456 514 408T414 350V374Q460 367 495 343T550 280T570 192Q570 97
499 43T300 -11ZM300 108Q364 108 395 132T427 203Q427 250 396 273T300 297Q237 297 205 274T173 203Q173 156 205 132T300 108ZM300 416Q353 416 381 440T409 507Q409 549 381 573T300 597Q248 597 220 573T192 507Q192 465 220 441T300 416Z" />
<glyph unicode="9" horiz-adv-x="600" d="M243 -11Q185 -11 129 9T31 66L81 181Q118 150 159 134T244 118Q327 118 370 172T413 333V398H426Q419 351 393 317T329 265T243 247Q183 247 136 276T61 358T33 475Q33 545 64 599T149 685T274 716Q366 716 429 675T525
554T559 362Q559 244 522 161T413 33T243 -11ZM283 368Q314 368 338 382T375 422T389 481Q389 516 376 541T338 581T283 596Q251 596 227 582T190 542T177 481Q177 448 190 422T227 382T283 368Z" />
<glyph unicode=":" horiz-adv-x="260" d="M49 347V507H211V347H49ZM49 0V160H211V0H49Z" />
<glyph unicode=";" horiz-adv-x="260" d="M121 -144L62 -97Q97 -62 112 -31T127 36L162 0H49V160H211V57Q211 0 191 -47T121 -144ZM49 347V507H211V347H49Z" />
<glyph unicode="&lt;" horiz-adv-x="600" d="M545 31L55 231V344L545 543V430L95 250V324L545 144V31Z" />
<glyph unicode="=" horiz-adv-x="600" d="M55 335V439H545V335H55ZM55 136V239H545V136H55Z" />
<glyph unicode="&gt;" horiz-adv-x="600" d="M55 31V144L505 324V250L55 430V543L545 344V231L55 31Z" />
<glyph unicode="?" horiz-adv-x="473" d="M170 223V270Q170 299 177 325T201 378T245 431Q265 452 276 468T293 500T298 530Q298 559 276 575T215 591Q176 591 137 578T63 544V671Q99 692 146 704T239 716Q299 716 347 699T423 645T451 551Q451 518 439 487T406
429T355 378Q306 338 288 310T265 253L261 223H170ZM134 0V160H297V0H134Z" />
<glyph unicode="@" horiz-adv-x="962" d="M491 -166Q393 -166 312 -136T173 -48T83 89T51 264Q51 366 83 449T177 592T322 684T510 716Q601 716 675 690T803 614T884 495T913 340Q913 254 888 191T818 93T713 59Q651 59 616 92T575 185L612 204Q588 131 542 95T437
59Q355 59 310 110T265 249Q265 323 292 379T368 468T480 501Q534 501 567 475T614 397H594L612 491H721L680 260Q677 242 675 228T673 202Q673 172 685 159T721 145Q750 145 773 169T809 237T822 340Q822 409 801 462T740 552T642 608T510 627Q428 627 362 602T249
529T177 415T152 264Q152 159 193 82T311 -36T491 -77Q564 -77 624 -58T732 -1L775 -79Q727 -120 654 -143T491 -166ZM461 151Q496 151 522 171T564 230T579 319Q579 363 560 385T501 408Q466 408 439 389T396 334T380 250Q380 202 401 177T461 151Z" />
<glyph unicode="A" horiz-adv-x="759" d="M-11 0L313 705H442L770 0H612L527 196L588 153H169L231 196L146 0H-11ZM377 541L248 235L221 273H536L513 235L381 541H377Z" />
<glyph unicode="B" horiz-adv-x="696" d="M72 0V705H397Q513 705 576 656T639 522Q639 459 602 415T499 356V372Q575 359 616 315T658 199Q658 105 592 53T408 0H72ZM221 116H389Q447 116 478 138T509 208Q509 240 495 260T455 290T389 300H221V116ZM221 415H369Q430
415 459 437T488 503Q488 546 459 568T369 590H221V415Z" />
<glyph unicode="C" horiz-adv-x="685" d="M413 -11Q300 -11 219 34T95 160T51 353Q51 464 94 545T219 671T413 716Q486 716 546 696T648 636L599 513Q553 549 512 564T418 579Q319 579 267 521T214 353Q214 281 237 230T306 153T418 126Q470 126 511 141T599 192L648
69Q606 31 546 10T413 -11Z" />
<glyph unicode="D" horiz-adv-x="771" d="M72 0V705H341Q464 705 549 663T677 543T721 353Q721 243 678 164T549 43T341 0H72ZM228 128H332Q450 128 507 183T565 353Q565 468 508 523T332 578H228V128Z" />
<glyph unicode="E" horiz-adv-x="599" d="M72 0V705H562V584H221V419H538V297H221V121H562V0H72Z" />
<glyph unicode="F" horiz-adv-x="578" d="M72 0V705H551V584H228V412H528V292H228V0H72Z" />
<glyph unicode="G" horiz-adv-x="745" d="M421 -11Q300 -11 218 33T93 159T51 350Q51 462 96 544T228 671T434 716Q511 716 569 697T672 641L622 520Q590 543 562 556T504 575T435 581Q325 581 270 522T214 349Q214 237 266 179T429 121Q466 121 505 128T582 149L554
89V279H399V390H683V44Q647 27 605 15T516 -4T421 -11Z" />
<glyph unicode="H" horiz-adv-x="779" d="M72 0V705H228V422H551V705H708V0H551V293H228V0H72Z" />
<glyph unicode="I" horiz-adv-x="299" d="M72 0V705H228V0H72Z" />
<glyph unicode="J" horiz-adv-x="381" d="M96 -187Q78 -187 53 -185T2 -178V-56Q22 -60 40 -62T69 -64Q115 -64 134 -38T153 46V705H309V46Q309 -32 288 -84T220 -161T96 -187Z" />
<glyph unicode="K" horiz-adv-x="685" d="M72 0V705H228V398H230L519 705H704L349 336L350 400L726 0H535L230 322H228V0H72Z" />
<glyph unicode="L" horiz-adv-x="569" d="M72 0V705H228V131H546V0H72Z" />
<glyph unicode="M" horiz-adv-x="877" d="M73 0V705H210L455 155H423L668 705H804V0H662V479H702L483 0H393L173 479H215V0H73Z" />
<glyph unicode="N" horiz-adv-x="760" d="M72 0V705H188L571 218H544V705H689V0H573L191 487H217V0H72Z" />
<glyph unicode="O" horiz-adv-x="795" d="M51 353Q51 463 92 544T212 671T397 716Q504 716 582 671T702 545T745 354Q745 243 703 162T582 35T397 -11Q290 -11 213 34T93 162T51 353ZM214 353Q214 281 234 229T295 149T397 121Q487 121 534 182T581 353Q581 426
561 478T499 557T397 584Q305 584 260 524T214 353Z" />
<glyph unicode="P" horiz-adv-x="675" d="M72 0V705H401Q520 705 581 648T643 490Q643 423 615 375T534 300T401 274H228V0H72ZM228 395H381Q437 395 464 420T492 490Q492 535 465 559T381 584H228V395Z" />
<glyph unicode="Q" horiz-adv-x="795" d="M585 -192Q552 -175 519 -146T457 -80T408 -4L529 50Q554 -1 598 -43T690 -113L585 -192ZM51 353Q51 463 92 544T212 671T397 716Q504 716 582 671T702 545T745 354Q745 243 703 162T582 35T397 -11Q290 -11 213 34T93
162T51 353ZM214 353Q214 281 234 229T295 149T397 121Q487 121 534 182T581 353Q581 426 561 478T499 557T397 584Q305 584 260 524T214 353Z" />
<glyph unicode="R" horiz-adv-x="708" d="M72 0V705H392Q511 705 576 649T641 491Q641 425 612 378T528 305T397 279L409 301H450Q493 301 526 278T582 211L687 0H515L406 227Q394 256 369 265T310 275H228V0H72ZM228 387H365Q426 387 458 412T490 486Q490 535
458 559T365 584H228V387Z" />
<glyph unicode="S" horiz-adv-x="658" d="M327 -11Q242 -11 168 10T42 68L88 190Q122 167 160 151T240 127T328 118Q400 118 430 140T461 196Q461 227 441 243T366 272L248 296Q151 316 103 364T55 492Q55 560 91 610T192 688T346 716Q421 716 486 695T593 635L547
521Q506 554 456 570T343 587Q278 587 244 564T209 501Q209 471 230 453T304 423L420 400Q519 380 567 333T615 208Q615 142 580 93T480 17T327 -11Z" />
<glyph unicode="T" horiz-adv-x="628" d="M235 0V578H11V705H615V578H391V0H235Z" />
<glyph unicode="U" horiz-adv-x="746" d="M375 -11Q272 -11 204 23T102 126T68 295V705H224V294Q224 209 260 165T375 121Q451 121 488 165T526 294V705H680V295Q680 194 646 126T545 24T375 -11Z" />
<glyph unicode="V" horiz-adv-x="735" d="M303 0L-14 705H154L395 141H346L587 705H749L432 0H303Z" />
<glyph unicode="W" horiz-adv-x="1126" d="M270 0L20 705H181L360 161H317L512 705H626L805 161H765L955 705H1106L854 0H727L554 501H577L398 0H270Z" />
<glyph unicode="X" horiz-adv-x="682" d="M-18 0L277 392V323L-10 705H173L365 436H315L508 705H691L403 323V392L700 0H516L315 279H366L164 0H-18Z" />
<glyph unicode="Y" horiz-adv-x="642" d="M243 0V335L275 246L-34 705H146L340 403H308L502 705H676L368 246L399 335V0H243Z" />
<glyph unicode="Z" horiz-adv-x="615" d="M46 0V115L422 623V577H46V705H571V591L194 83V128H585V0H46Z" />
<glyph unicode="[" horiz-adv-x="376" d="M99 -180V705H360V593H248V-68H360V-180H99Z" />
<glyph unicode="\" horiz-adv-x="334" d="M238 -61L-26 755H96L360 -61H238Z" />
<glyph unicode="]" horiz-adv-x="376" d="M17 -180V-68H128V593H17V705H276V-180H17Z" />
<glyph unicode="^" horiz-adv-x="600" d="M43 141L244 628H356L557 141H444L263 587H336L156 141H43Z" />
<glyph unicode="_" horiz-adv-x="505" d="M15 -88V0H490V-88H15Z" />
<glyph unicode="`" horiz-adv-x="500" d="M200 555L53 760H197L300 555H200Z" />
<glyph unicode="a" horiz-adv-x="632" d="M259 -11Q193 -11 143 21T65 112T37 254Q37 336 65 395T143 485T259 517Q320 517 368 488T432 408H421L433 507H578Q575 474 573 441T570 375V0H420L419 95H431Q415 47 367 18T259 -11ZM305 103Q357 103 389 140T421 254Q421
331 389 367T305 403Q253 403 221 367T189 254Q189 177 220 140T305 103Z" />
<glyph unicode="b" horiz-adv-x="632" d="M372 -11Q311 -11 264 19T200 99H211V0H62V736H213V412H200Q217 460 264 488T372 517Q439 517 489 485T567 394T596 252Q596 170 568 111T489 21T372 -11ZM327 103Q378 103 411 139T444 252Q444 329 411 366T327 403Q275
403 243 367T210 254Q210 177 242 140T327 103Z" />
<glyph unicode="c" horiz-adv-x="509" d="M306 -11Q225 -11 164 21T70 113T37 255Q37 338 70 396T164 486T306 517Q357 517 405 502T485 460L441 356Q416 379 384 390T321 402Q260 402 226 364T192 254Q192 182 226 144T321 106Q350 106 382 117T441 150L485 47Q453
20 405 5T306 -11Z" />
<glyph unicode="d" horiz-adv-x="632" d="M261 -11Q195 -11 145 21T66 112T37 254Q37 336 65 395T144 485T261 517Q321 517 368 489T432 412H419V736H570V0H421V99H434Q418 49 370 19T261 -11ZM306 103Q358 103 390 140T422 254Q422 331 390 367T306 403Q254 403
222 367T189 254Q189 177 221 140T306 103Z" />
<glyph unicode="e" horiz-adv-x="550" d="M317 -11Q229 -11 166 21T70 112T37 253Q37 332 68 391T156 483T289 517Q364 517 414 485T490 396T516 262V227H161V302H406L389 288Q389 351 364 383T290 416Q254 416 230 399T193 348T180 265V249Q180 175 216 139T322
103Q363 103 399 113T469 147L511 47Q473 19 424 4T317 -11Z" />
<glyph unicode="f" horiz-adv-x="386" d="M100 0V394H4V507H143L100 468V541Q100 640 151 690T306 740Q329 740 355 737T402 725V609Q388 614 370 616T335 619Q312 619 293 611T262 585T250 535V482L229 507H378V394H251V0H100Z" />
<glyph unicode="g" horiz-adv-x="633" d="M303 -224Q230 -224 173 -210T71 -166L100 -58Q128 -76 159 -87T224 -104T291 -110Q358 -110 391 -78T424 13V118H434Q418 70 370 41T262 12Q194 12 144 43T65 131T37 265Q37 342 65 399T143 486T262 517Q323 517 369
489T432 413L424 417L434 507H580Q576 474 574 441T572 375V30Q572 -93 503 -158T303 -224ZM307 126Q360 126 391 162T422 265Q422 332 391 367T307 403Q252 403 221 368T189 265Q189 198 220 162T307 126Z" />
<glyph unicode="h" horiz-adv-x="613" d="M62 0V736H213V412H198Q222 463 269 490T377 517Q466 517 510 466T554 308V0H403V301Q403 354 384 377T323 400Q273 400 243 369T213 286V0H62Z" />
<glyph unicode="i" horiz-adv-x="274" d="M62 0V507H213V0H62ZM56 590V731H218V590H56Z" />
<glyph unicode="j" horiz-adv-x="274" d="M21 -223Q-1 -223 -24 -220T-67 -209V-92Q-53 -96 -39 -99T-10 -102Q22 -102 42 -83T63 -15V507H214V-22Q214 -121 168 -172T21 -223ZM56 590V731H219V590H56Z" />
<glyph unicode="k" horiz-adv-x="574" d="M62 0V736H213V296H215L403 507H583L340 237V292L596 0H411L215 220H213V0H62Z" />
<glyph unicode="l" horiz-adv-x="274" d="M62 0V736H213V0H62Z" />
<glyph unicode="m" horiz-adv-x="911" d="M62 0V375Q62 407 60 440T54 507H199L210 413H198Q220 461 263 489T365 517Q423 517 462 490T519 404H503Q525 456 573 486T682 517Q768 517 810 466T852 306V0H701V301Q701 354 684 377T629 400Q584 400 558 368T532
280V0H381V301Q381 354 364 377T309 400Q264 400 239 368T213 280V0H62Z" />
<glyph unicode="n" horiz-adv-x="613" d="M62 0V375Q62 407 60 440T54 507H199L210 413H198Q223 463 269 490T376 517Q465 517 509 466T554 306V0H403V299Q403 354 383 377T323 400Q273 400 243 369T213 284V0H62Z" />
<glyph unicode="o" horiz-adv-x="604" d="M302 -11Q221 -11 162 21T70 113T37 254Q37 335 69 394T161 485T302 517Q383 517 443 485T535 394T568 254Q568 172 536 113T443 22T302 -11ZM302 103Q354 103 384 140T415 254Q415 331 385 367T302 403Q250 403 220 367T189
254Q189 177 219 140T302 103Z" />
<glyph unicode="p" horiz-adv-x="632" d="M62 -216V375Q62 407 60 440T54 507H199L211 408H200Q215 458 263 487T373 517Q439 517 489 486T567 395T596 254Q596 171 568 112T489 21T373 -11Q312 -11 265 18T201 95H213V-216H62ZM327 103Q380 103 412 140T444 254Q444
331 412 367T327 403Q275 403 243 367T210 254Q210 177 242 140T327 103Z" />
<glyph unicode="q" horiz-adv-x="632" d="M419 -216V95H431Q415 47 367 18T259 -11Q193 -11 143 21T65 112T37 254Q37 336 65 395T143 485T259 517Q320 517 368 488T432 408H421L433 507H578Q575 474 573 441T570 375V-216H419ZM305 103Q357 103 389 140T421 254Q421
331 389 367T305 403Q253 403 221 367T189 254Q189 177 220 140T305 103Z" />
<glyph unicode="r" horiz-adv-x="411" d="M61 0V373Q61 406 60 440T54 507H199L216 359H193Q203 413 225 448T281 500T358 517Q377 517 388 516T410 510L409 377Q388 386 374 388T337 391Q295 391 268 375T227 328T213 253V0H61Z" />
<glyph unicode="s" horiz-adv-x="504" d="M249 -11Q181 -11 125 4T30 46L69 146Q108 122 155 108T250 94Q294 94 315 108T336 146Q336 166 323 177T281 193L178 212Q113 225 79 260T45 351Q45 400 71 437T148 496T265 517Q322 517 373 503T460 460L419 363Q388
386 348 400T270 414Q222 414 201 399T180 359Q180 341 192 329T231 311L335 292Q402 280 437 247T472 156Q472 103 444 66T366 9T249 -11Z" />
<glyph unicode="t" horiz-adv-x="396" d="M299 -11Q200 -11 150 38T100 187V394H4V507H100V631L251 668V507H381V394H251V195Q251 147 271 129T322 111Q341 111 353 113T380 121V4Q361 -4 340 -7T299 -11Z" />
<glyph unicode="u" horiz-adv-x="607" d="M246 -11Q151 -11 105 41T59 201V507H210V201Q210 153 229 130T290 107Q335 107 364 138T394 223V507H545V0H398V97H412Q389 46 346 18T246 -11Z" />
<glyph unicode="v" horiz-adv-x="551" d="M209 0L-10 507H149L294 139H261L411 507H560L339 0H209Z" />
<glyph unicode="w" horiz-adv-x="891" d="M205 0L1 507H156L290 142H264L399 507H499L633 142H612L744 507H890L687 0H557L413 374H474L335 0H205Z" />
<glyph unicode="x" horiz-adv-x="557" d="M-22 0L218 295V228L-9 507H169L304 330H250L386 507H563L337 227V296L577 0H398L250 190H304L155 0H-22Z" />
<glyph unicode="y" horiz-adv-x="550" d="M57 -227L22 -109Q69 -100 101 -88T155 -57T189 -6L214 53L210 -5L-10 507H149L294 140H263L410 507H560L331 -20Q306 -77 278 -114T216 -174T144 -208T57 -227Z" />
<glyph unicode="z" horiz-adv-x="530" d="M47 0V98L349 430V394H47V507H485V408L179 73L178 112H495V0H47Z" />
<glyph unicode="{" horiz-adv-x="414" d="M277 -180Q235 -180 206 -164T162 -119T146 -47V127Q146 167 132 184T83 204L38 208V316L83 320Q118 323 132 340T146 398V572Q146 635 180 670T277 705H399V593H337Q315 593 305 582T294 548V379Q294 348 280 321T243
277T192 260V264Q220 264 243 248T280 205T294 145V-23Q294 -45 304 -56T337 -68H399V-180H277Z" />
<glyph unicode="|" horiz-adv-x="293" d="M71 -183V708H222V-183H71Z" />
<glyph unicode="}" horiz-adv-x="414" d="M15 -180V-68H77Q100 -68 109 -57T119 -23V146Q119 178 133 205T170 248T221 265V261Q194 261 171 277T133 321T119 381V548Q119 571 110 582T77 593H15V705H136Q179 705 208 690T253 644T268 572V398Q268 359 281 342T330
321L375 318V209L330 205Q295 203 282 186T268 128V-47Q268 -109 234 -144T136 -180H15Z" />
<glyph unicode="~" horiz-adv-x="600" d="M407 204Q384 204 359 211T293 239Q258 258 237 265T202 273Q179 273 161 259T131 213L55 262Q71 312 108 341T192 371Q217 371 244 363T308 336Q342 318 363 310T398 302Q422 302 439 316T468 362L545 312Q529 263 492
234T407 204Z" />
<glyph unicode="&#xa0;" horiz-adv-x="282" />
<glyph unicode="&#xa1;" horiz-adv-x="260" d="M37 -180L84 284H175L223 -180H37ZM49 347V507H211V347H49Z" />
<glyph unicode="&#xa2;" horiz-adv-x="600" d="M257 -115V30L285 -4Q221 7 174 41T102 127T77 245Q77 308 102 359T175 446T285 491L257 456V610H375V465L344 497Q398 496 447 481T527 437L487 334Q460 355 426 368T357 381Q297 381 264 344T231 248Q231 209 246
178T289 130T356 112Q391 112 425 125T487 159L527 56Q495 29 447 12T342 -8L375 22V-115H257Z" />
<glyph unicode="&#xa3;" horiz-adv-x="600" d="M41 0V103Q78 115 98 134T118 188V308H40V398H118V489Q118 557 145 608T228 687T369 716Q432 716 487 698T582 646L531 535Q493 566 456 579T379 593Q324 593 299 568T274 494V398H433V308H275V221Q275 182 259 157T212
121V125H571V0H41Z" />
<glyph unicode="&#xa4;" horiz-adv-x="600" d="M84 -32L28 24L101 99Q80 130 68 167T55 245Q55 286 67 323T101 392L28 466L85 523L158 448Q188 469 223 481T298 493Q337 493 372 482T437 449L511 525L571 464L496 389Q518 358 529 322T540 245Q540 205 529 168T495
100L569 24L513 -31L440 44Q410 22 374 10T298 -3Q259 -3 223 9T157 42L84 -32ZM298 116Q332 116 359 133T403 180T419 245Q419 281 403 310T360 357T298 375Q265 375 237 358T193 311T176 245Q176 210 192 181T236 134T298 116Z" />
<glyph unicode="&#xa5;" horiz-adv-x="600" d="M222 0V159H65V245H222V317H65V403H194V385L-23 705H145L316 439H283L455 705H623L406 385V403H535V317H377V245H535V159H377V0H222Z" />
<glyph unicode="&#xa6;" horiz-adv-x="293" d="M71 372V708H222V372H71ZM71 -183V154H222V-183H71Z" />
<glyph unicode="&#xa7;" horiz-adv-x="586" d="M274 -191Q203 -191 144 -175T44 -130L86 -30Q109 -46 140 -59T207 -79T275 -87Q323 -87 350 -68T377 -14Q377 10 362 28T308 64L168 124Q118 147 88 172T43 229T28 297Q28 347 54 388T129 459L117 419Q95 439 83
466T70 527Q70 586 100 628T186 693T316 716Q383 716 438 702T528 659L489 562Q453 585 406 598T314 611Q268 611 241 593T214 539Q214 515 230 497T284 461L423 401Q473 379 503 353T548 296T563 228Q563 178 538 137T463 66L475 106Q497 86 509 58T521 -3Q521
-61 491 -103T405 -168T274 -191ZM162 325Q162 297 181 274T245 230L365 177Q387 167 404 156T434 134L400 130Q415 146 422 164T430 200Q430 229 411 252T347 295L226 348Q205 358 188 369T158 391L191 395Q177 379 170 361T162 325Z" />
<glyph unicode="&#xa8;" horiz-adv-x="500" d="M283 590V722H415V590H283ZM85 590V722H217V590H85Z" />
<glyph unicode="&#xa9;" horiz-adv-x="815" d="M408 -11Q331 -11 265 17T149 94T72 210T44 353Q44 430 71 496T148 611T264 688T408 716Q485 716 551 689T666 612T743 496T771 353Q771 276 744 210T667 95T551 17T408 -11ZM429 137Q327 137 267 195T206 354Q206
454 266 511T429 568Q469 568 509 556T574 523L539 434Q519 452 493 461T440 471Q390 471 362 440T333 353Q333 298 361 267T440 235Q467 235 493 244T539 272L574 183Q549 162 509 150T429 137ZM408 48Q473 48 528 71T623 135T686 232T709 353Q709 418 687 473T624
570T528 634T408 657Q343 657 288 634T192 570T129 474T106 353Q106 288 128 233T192 136T288 71T408 48Z" />
<glyph unicode="&#xaa;" horiz-adv-x="349" d="M134 406Q100 406 74 418T34 453T19 502Q19 534 37 553T93 581T187 590H234V541H190Q149 541 132 532T114 505Q114 490 125 480T160 469Q188 469 206 488T224 540V598Q224 622 210 633T162 645Q139 645 110 639T56
619L34 685Q59 699 97 707T170 716Q246 716 282 686T319 593V413H228V468H226Q211 437 190 422T134 406Z" />
<glyph unicode="&#xab;" horiz-adv-x="529" d="M155 85L22 268L155 451H279L153 268L279 85H155ZM378 85L245 268L378 451H502L376 268L502 85H378Z" />
<glyph unicode="&#xac;" horiz-adv-x="600" d="M438 135V336H55V439H545V135H438Z" />
<glyph unicode="&#xad;" horiz-adv-x="444" d="M64 217V335H379V217H64Z" />
<glyph unicode="&#xae;" horiz-adv-x="815" d="M408 -11Q331 -11 265 17T149 94T72 210T44 353Q44 430 71 496T148 611T264 688T408 716Q485 716 551 689T666 612T743 496T771 353Q771 276 744 210T667 95T551 17T408 -11ZM408 48Q473 48 528 71T623 135T686 232T709
353Q709 418 687 473T624 570T528 634T408 657Q343 657 288 634T192 570T129 474T106 353Q106 288 128 233T192 136T288 71T408 48ZM246 142V565H436Q509 565 547 530T586 439Q586 381 549 351T443 320L471 331Q504 331 525 315T558 249L590 142H475L441 264Q435
284 423 291T393 298H342L360 310V142H246ZM359 381H420Q449 381 464 393T479 432Q479 459 464 471T420 483H359V381Z" />
<glyph unicode="&#xaf;" horiz-adv-x="500" d="M87 611V696H413V611H87Z" />
<glyph unicode="&#xb0;" horiz-adv-x="384" d="M192 399Q146 399 109 419T51 476T30 558Q30 603 51 638T109 694T192 715Q239 715 275 695T332 639T354 558Q354 512 333 476T275 420T192 399ZM192 480Q224 480 245 502T266 558Q266 590 245 612T192 635Q160 635
139 613T118 558Q118 524 139 502T192 480Z" />
<glyph unicode="&#xb1;" horiz-adv-x="600" d="M247 146V287H55V391H247V532H354V391H545V287H354V146H247ZM55 0V103H545V0H55Z" />
<glyph unicode="&#xb2;" horiz-adv-x="380" d="M43 282V369L166 489Q189 512 199 530T210 567Q210 589 197 600T155 612Q132 612 105 603T56 579L34 669Q61 687 99 698T185 709Q256 709 297 676T339 585Q339 552 323 521T268 455L179 371V380H353V282H43Z" />
<glyph unicode="&#xb3;" horiz-adv-x="380" d="M187 277Q137 277 96 285T25 312L45 399Q71 383 104 376T174 368Q207 368 224 379T242 413Q242 433 227 442T185 451H97V537H172Q200 537 214 547T229 578Q229 597 214 607T167 618Q137 618 106 609T53 585L32 672Q59
690 99 699T189 709Q261 709 302 679T344 597Q344 556 317 528T248 493V506Q298 502 326 475T355 399Q355 343 309 310T187 277Z" />
<glyph unicode="&#xb4;" horiz-adv-x="500" d="M200 555L303 760H447L300 555H200Z" />
<glyph unicode="&#xb5;" horiz-adv-x="587" d="M53 -192V507H204V196Q204 151 223 130T281 108Q326 108 354 138T382 219V507H533V0H386V96H387Q377 45 346 17T278 -11Q247 -11 226 1T190 41H193L204 -192H53Z" />
<glyph unicode="&#xb6;" horiz-adv-x="651" d="M254 -180V265Q187 265 137 293T59 370T31 486Q31 552 59 601T138 677T257 705H579V-180H473V600H360V-180H254Z" />
<glyph unicode="&#xb7;" horiz-adv-x="263" d="M50 196V356H213V196H50Z" />
<glyph unicode="&#xb8;" horiz-adv-x="500" d="M249 -197Q218 -197 190 -191T139 -175L160 -111Q178 -119 196 -124T234 -129Q261 -129 274 -123T287 -103Q287 -93 279 -88T250 -83Q241 -83 232 -83T212 -88L191 -68L205 20H281L268 -56L231 -42Q242 -38 254 -36T277
-34Q321 -34 347 -53T373 -108Q373 -148 339 -172T249 -197Z" />
<glyph unicode="&#xb9;" horiz-adv-x="380" d="M49 282V380H149V601H197L60 531V642L182 705H269V380H354V282H49Z" />
<glyph unicode="&#xba;" horiz-adv-x="365" d="M182 408Q136 408 99 427T41 480T19 563Q19 610 40 644T99 697T183 716Q230 716 267 698T325 645T347 563Q347 515 326 481T267 427T182 408ZM182 481Q213 481 231 502T249 563Q249 603 231 623T182 644Q152 644
135 624T117 563Q117 522 134 502T182 481Z" />
<glyph unicode="&#xbb;" horiz-adv-x="529" d="M151 85H27L153 268L27 451H152L284 268L151 85ZM374 85H250L376 268L250 451H375L507 268L374 85Z" />
<glyph unicode="&#xbc;" horiz-adv-x="925" d="M49 282V380H149V601H197L60 531V642L182 705H269V380H354V282H49ZM345 -11H218L643 716H769L345 -11ZM752 0V69H560V149L761 423H861V157H916V69H861V0H752ZM756 157V310H766L644 142V157H756Z" />
<glyph unicode="&#xbd;" horiz-adv-x="975" d="M49 282V380H149V601H197L60 531V642L182 705H269V380H354V282H49ZM345 -11H218L643 716H769L345 -11ZM638 0V87L761 207Q784 230 794 248T805 285Q805 307 792 318T750 330Q727 330 700 321T651 297L629 387Q656
405 694 416T780 427Q851 427 892 394T934 303Q934 270 918 239T863 173L774 89V98H948V0H638Z" />
<glyph unicode="&#xbe;" horiz-adv-x="925" d="M187 277Q137 277 96 285T25 312L45 399Q71 383 104 376T174 368Q207 368 224 379T242 413Q242 433 227 442T185 451H97V537H172Q200 537 214 547T229 578Q229 597 214 607T167 618Q137 618 106 609T53 585L32 672Q59
690 99 699T189 709Q261 709 302 679T344 597Q344 556 317 528T248 493V506Q298 502 326 475T355 399Q355 343 309 310T187 277ZM345 -11H218L643 716H769L345 -11ZM752 0V69H560V149L761 423H861V157H916V69H861V0H752ZM756 157V310H766L644 142V157H756Z" />
<glyph unicode="&#xbf;" horiz-adv-x="473" d="M235 -200Q174 -200 126 -182T50 -125T22 -31Q22 2 31 29T62 83T119 139Q168 178 185 207T208 263L213 283H303V246Q303 217 296 191T273 139T228 86Q209 66 198 49T181 17T175 -14Q175 -42 197 -58T259 -75Q298
-75 337 -62T411 -28V-155Q376 -176 329 -188T235 -200ZM339 507V346H177V507H339Z" />
<glyph unicode="&#xc0;" horiz-adv-x="759" d="M-11 0L313 705H442L770 0H612L527 196L588 153H169L231 196L146 0H-11ZM377 541L248 235L221 273H536L513 235L381 541H377ZM326 765L160 940H313L432 765H326Z" />
<glyph unicode="&#xc1;" horiz-adv-x="759" d="M-11 0L313 705H442L770 0H612L527 196L588 153H169L231 196L146 0H-11ZM377 541L248 235L221 273H536L513 235L381 541H377ZM326 765L445 940H598L432 765H326Z" />
<glyph unicode="&#xc2;" horiz-adv-x="759" d="M-11 0L313 705H442L770 0H612L527 196L588 153H169L231 196L146 0H-11ZM377 541L248 235L221 273H536L513 235L381 541H377ZM191 765L316 940H442L567 765H464L379 860L294 765H191Z" />
<glyph unicode="&#xc3;" horiz-adv-x="759" d="M-11 0L313 705H442L770 0H612L527 196L588 153H169L231 196L146 0H-11ZM377 541L248 235L221 273H536L513 235L381 541H377ZM219 766L148 770Q153 846 192 886T290 927Q313 927 337 919T394 894Q422 880 439 874T471
867Q500 867 516 883T539 931L610 927Q606 851 567 811T469 770Q444 770 420 778T361 805Q334 819 318 824T287 830Q258 830 242 814T219 766Z" />
<glyph unicode="&#xc4;" horiz-adv-x="759" d="M-11 0L313 705H442L770 0H612L527 196L588 153H169L231 196L146 0H-11ZM377 541L248 235L221 273H536L513 235L381 541H377ZM412 781V913H544V781H412ZM214 781V913H346V781H214Z" />
<glyph unicode="&#xc5;" horiz-adv-x="759" d="M-11 0L313 705H442L770 0H612L527 196L588 153H169L231 196L146 0H-11ZM377 541L248 235L221 273H536L513 235L381 541H377ZM379 753Q343 753 313 770T266 816T249 880Q249 916 266 944T313 989T379 1006Q416 1006
445 990T492 945T509 880Q509 845 492 816T446 770T379 753ZM379 818Q406 818 423 836T440 880Q440 907 423 924T379 941Q353 941 336 924T318 880Q318 854 335 836T379 818Z" />
<glyph unicode="&#xc6;" horiz-adv-x="1023" d="M-31 0L415 705H986V584H622L646 604L664 376L646 419H964V297H647L669 307L687 91L668 121H986V0H553L538 192L568 153H208L253 194L136 0H-31ZM488 584L279 237L268 274H548L536 232L508 584H488Z" />
<glyph unicode="&#xc7;" horiz-adv-x="684" d="M413 -11Q300 -11 219 34T95 160T51 353Q51 464 94 545T219 671T413 716Q486 716 546 696T648 636L599 513Q553 549 512 564T418 579Q319 579 267 521T214 353Q214 281 237 230T306 153T418 126Q470 126 511 141T599
192L648 69Q606 31 546 10T413 -11ZM401 -197Q370 -197 342 -191T291 -175L312 -111Q330 -119 348 -124T386 -129Q413 -129 426 -123T439 -103Q439 -93 431 -88T402 -83Q393 -83 384 -83T364 -88L343 -68L357 20H433L420 -56L383 -42Q394 -38 406 -36T429 -34Q473
-34 499 -53T525 -108Q525 -148 491 -172T401 -197Z" />
<glyph unicode="&#xc8;" horiz-adv-x="599" d="M72 0V705H562V584H221V419H538V297H221V121H562V0H72ZM283 765L117 940H270L389 765H283Z" />
<glyph unicode="&#xc9;" horiz-adv-x="599" d="M72 0V705H562V584H221V419H538V297H221V121H562V0H72ZM283 765L402 940H555L389 765H283Z" />
<glyph unicode="&#xca;" horiz-adv-x="599" d="M72 0V705H562V584H221V419H538V297H221V121H562V0H72ZM148 765L273 940H399L524 765H421L336 860L251 765H148Z" />
<glyph unicode="&#xcb;" horiz-adv-x="599" d="M72 0V705H562V584H221V419H538V297H221V121H562V0H72ZM369 781V913H501V781H369ZM171 781V913H303V781H171Z" />
<glyph unicode="&#xcc;" horiz-adv-x="299" d="M72 0V705H228V0H72ZM97 765L-69 940H84L203 765H97Z" />
<glyph unicode="&#xcd;" horiz-adv-x="299" d="M72 0V705H228V0H72ZM97 765L216 940H369L203 765H97Z" />
<glyph unicode="&#xce;" horiz-adv-x="299" d="M72 0V705H228V0H72ZM-38 765L87 940H213L338 765H235L150 860L65 765H-38Z" />
<glyph unicode="&#xcf;" horiz-adv-x="299" d="M72 0V705H228V0H72ZM183 781V913H315V781H183ZM-15 781V913H117V781H-15Z" />
<glyph unicode="&#xd0;" horiz-adv-x="771" d="M72 0V705H341Q464 705 549 663T677 543T721 353Q721 243 678 164T549 43T341 0H72ZM228 128H332Q450 128 507 183T565 353Q565 468 508 523T332 578H228V128ZM-11 301V412H416V301H-11Z" />
<glyph unicode="&#xd1;" horiz-adv-x="760" d="M72 0V705H188L571 218H544V705H689V0H573L191 487H217V0H72ZM223 766L152 770Q157 846 196 886T294 927Q317 927 341 919T398 894Q426 880 443 874T475 867Q504 867 520 883T543 931L614 927Q610 851 571 811T473
770Q448 770 424 778T365 805Q338 819 322 824T291 830Q262 830 246 814T223 766Z" />
<glyph unicode="&#xd2;" horiz-adv-x="795" d="M51 353Q51 463 92 544T212 671T397 716Q504 716 582 671T702 545T745 354Q745 243 703 162T582 35T397 -11Q290 -11 213 34T93 162T51 353ZM214 353Q214 281 234 229T295 149T397 121Q487 121 534 182T581 353Q581
426 561 478T499 557T397 584Q305 584 260 524T214 353ZM344 765L178 940H331L450 765H344Z" />
<glyph unicode="&#xd3;" horiz-adv-x="795" d="M51 353Q51 463 92 544T212 671T397 716Q504 716 582 671T702 545T745 354Q745 243 703 162T582 35T397 -11Q290 -11 213 34T93 162T51 353ZM214 353Q214 281 234 229T295 149T397 121Q487 121 534 182T581 353Q581
426 561 478T499 557T397 584Q305 584 260 524T214 353ZM344 765L463 940H616L450 765H344Z" />
<glyph unicode="&#xd4;" horiz-adv-x="795" d="M51 353Q51 463 92 544T212 671T397 716Q504 716 582 671T702 545T745 354Q745 243 703 162T582 35T397 -11Q290 -11 213 34T93 162T51 353ZM214 353Q214 281 234 229T295 149T397 121Q487 121 534 182T581 353Q581
426 561 478T499 557T397 584Q305 584 260 524T214 353ZM209 765L334 940H460L585 765H482L397 860L312 765H209Z" />
<glyph unicode="&#xd5;" horiz-adv-x="795" d="M51 353Q51 463 92 544T212 671T397 716Q504 716 582 671T702 545T745 354Q745 243 703 162T582 35T397 -11Q290 -11 213 34T93 162T51 353ZM214 353Q214 281 234 229T295 149T397 121Q487 121 534 182T581 353Q581
426 561 478T499 557T397 584Q305 584 260 524T214 353ZM237 766L166 770Q171 846 210 886T308 927Q331 927 355 919T412 894Q440 880 457 874T489 867Q518 867 534 883T557 931L628 927Q624 851 585 811T487 770Q462 770 438 778T379 805Q352 819 336 824T305
830Q276 830 260 814T237 766Z" />
<glyph unicode="&#xd6;" horiz-adv-x="795" d="M51 353Q51 463 92 544T212 671T397 716Q504 716 582 671T702 545T745 354Q745 243 703 162T582 35T397 -11Q290 -11 213 34T93 162T51 353ZM214 353Q214 281 234 229T295 149T397 121Q487 121 534 182T581 353Q581
426 561 478T499 557T397 584Q305 584 260 524T214 353ZM430 781V913H562V781H430ZM232 781V913H364V781H232Z" />
<glyph unicode="&#xd7;" horiz-adv-x="600" d="M139 52L66 124L227 286L66 447L139 520L300 359L462 520L535 447L373 286L535 124L462 52L300 213L139 52Z" />
<glyph unicode="&#xd8;" horiz-adv-x="795" d="M51 353Q51 463 92 544T212 671T397 716Q504 716 582 671T702 545T745 354Q745 243 703 162T582 35T397 -11Q290 -11 213 34T93 162T51 353ZM214 353Q214 281 234 229T295 149T397 121Q487 121 534 182T581 353Q581
426 561 478T499 557T397 584Q305 584 260 524T214 353ZM295 51L227 -68L128 -9L196 109L246 173L491 591L514 655L583 773L681 714L613 596L563 533L318 114L295 51Z" />
<glyph unicode="&#xd9;" horiz-adv-x="746" d="M375 -11Q272 -11 204 23T102 126T68 295V705H224V294Q224 209 260 165T375 121Q451 121 488 165T526 294V705H680V295Q680 194 646 126T545 24T375 -11ZM322 765L156 940H309L428 765H322Z" />
<glyph unicode="&#xda;" horiz-adv-x="746" d="M375 -11Q272 -11 204 23T102 126T68 295V705H224V294Q224 209 260 165T375 121Q451 121 488 165T526 294V705H680V295Q680 194 646 126T545 24T375 -11ZM322 765L441 940H594L428 765H322Z" />
<glyph unicode="&#xdb;" horiz-adv-x="746" d="M375 -11Q272 -11 204 23T102 126T68 295V705H224V294Q224 209 260 165T375 121Q451 121 488 165T526 294V705H680V295Q680 194 646 126T545 24T375 -11ZM187 765L312 940H438L563 765H460L375 860L290 765H187Z" />
<glyph unicode="&#xdc;" horiz-adv-x="746" d="M375 -11Q272 -11 204 23T102 126T68 295V705H224V294Q224 209 260 165T375 121Q451 121 488 165T526 294V705H680V295Q680 194 646 126T545 24T375 -11ZM408 781V913H540V781H408ZM210 781V913H342V781H210Z" />
<glyph unicode="&#xdd;" horiz-adv-x="642" d="M243 0V335L275 246L-34 705H146L340 403H308L502 705H676L368 246L399 335V0H243ZM268 765L387 940H540L374 765H268Z" />
<glyph unicode="&#xde;" horiz-adv-x="676" d="M72 0V705H228V589H395Q513 589 578 532T643 374Q643 308 614 259T530 184T395 158H228V0H72ZM228 279H382Q436 279 464 304T493 374Q493 419 465 443T382 468H228V279Z" />
<glyph unicode="&#xdf;" horiz-adv-x="697" d="M62 0V462Q62 602 134 673T348 745Q421 745 474 723T557 658T587 555Q587 516 572 481T521 415T423 360V387Q505 365 561 337T646 269T675 170Q675 115 648 75T572 12T455 -11Q411 -11 377 -4T316 15T262 45L299
145Q337 122 372 109T450 96Q490 96 511 114T532 165Q532 193 513 218T445 266T311 309V422Q361 438 391 457T433 499T446 549Q446 588 420 611T348 635Q281 635 247 598T213 483V0H62Z" />
<glyph unicode="&#xe0;" horiz-adv-x="632" d="M259 -11Q193 -11 143 21T65 112T37 254Q37 336 65 395T143 485T259 517Q320 517 368 488T432 408H421L433 507H578Q575 474 573 441T570 375V0H420L419 95H431Q415 47 367 18T259 -11ZM305 103Q357 103 389 140T421
254Q421 331 389 367T305 403Q253 403 221 367T189 254Q189 177 220 140T305 103ZM261 555L114 760H258L361 555H261Z" />
<glyph unicode="&#xe1;" horiz-adv-x="632" d="M259 -11Q193 -11 143 21T65 112T37 254Q37 336 65 395T143 485T259 517Q320 517 368 488T432 408H421L433 507H578Q575 474 573 441T570 375V0H420L419 95H431Q415 47 367 18T259 -11ZM305 103Q357 103 389 140T421
254Q421 331 389 367T305 403Q253 403 221 367T189 254Q189 177 220 140T305 103ZM261 555L364 760H508L361 555H261Z" />
<glyph unicode="&#xe2;" horiz-adv-x="632" d="M259 -11Q193 -11 143 21T65 112T37 254Q37 336 65 395T143 485T259 517Q320 517 368 488T432 408H421L433 507H578Q575 474 573 441T570 375V0H420L419 95H431Q415 47 367 18T259 -11ZM305 103Q357 103 389 140T421
254Q421 331 389 367T305 403Q253 403 221 367T189 254Q189 177 220 140T305 103ZM136 555L247 760H375L486 555H393L311 678L229 555H136Z" />
<glyph unicode="&#xe3;" horiz-adv-x="632" d="M259 -11Q193 -11 143 21T65 112T37 254Q37 336 65 395T143 485T259 517Q320 517 368 488T432 408H421L433 507H578Q575 474 573 441T570 375V0H420L419 95H431Q415 47 367 18T259 -11ZM305 103Q357 103 389 140T421
254Q421 331 389 367T305 403Q253 403 221 367T189 254Q189 177 220 140T305 103ZM180 581L109 585Q114 661 149 701T236 742Q259 742 278 734T321 709Q341 694 354 688T381 682Q431 682 442 746L513 742Q509 666 474 626T386 585Q364 585 344 593T300 619Q281
633 268 639T241 645Q213 645 199 628T180 581Z" />
<glyph unicode="&#xe4;" horiz-adv-x="632" d="M259 -11Q193 -11 143 21T65 112T37 254Q37 336 65 395T143 485T259 517Q320 517 368 488T432 408H421L433 507H578Q575 474 573 441T570 375V0H420L419 95H431Q415 47 367 18T259 -11ZM305 103Q357 103 389 140T421
254Q421 331 389 367T305 403Q253 403 221 367T189 254Q189 177 220 140T305 103ZM344 590V722H476V590H344ZM146 590V722H278V590H146Z" />
<glyph unicode="&#xe5;" horiz-adv-x="632" d="M259 -11Q193 -11 143 21T65 112T37 254Q37 336 65 395T143 485T259 517Q320 517 368 488T432 408H421L433 507H578Q575 474 573 441T570 375V0H420L419 95H431Q415 47 367 18T259 -11ZM305 103Q357 103 389 140T421
254Q421 331 389 367T305 403Q253 403 221 367T189 254Q189 177 220 140T305 103ZM311 545Q275 545 245 561T198 607T181 671Q181 708 198 736T245 781T311 798Q348 798 377 782T424 737T441 671Q441 636 424 607T378 562T311 545ZM311 610Q338 610 355 628T372
671Q372 699 355 715T311 732Q285 732 268 716T250 672Q250 645 267 628T311 610Z" />
<glyph unicode="&#xe6;" horiz-adv-x="866" d="M228 -11Q169 -11 126 12T60 72T37 153Q37 209 63 242T151 291T319 306H368V231H317Q263 231 231 224T184 200T169 158Q169 129 190 110T250 91Q281 91 305 104T342 143T356 201V322Q356 366 334 385T262 404Q220
404 181 394T98 360L57 462Q84 479 118 491T192 510T270 517Q341 517 389 494T459 421H424Q460 469 504 493T609 517Q677 517 727 487T805 401T832 266V231H486V306H722L705 289Q705 351 680 383T608 416Q574 416 550 400T512 352T499 270V261Q499 180 533 142T636
103Q677 103 714 113T785 148L827 48Q789 18 738 4T631 -11Q544 -11 486 23T399 122H426Q407 59 356 24T228 -11Z" />
<glyph unicode="&#xe7;" horiz-adv-x="509" d="M306 -11Q225 -11 164 21T70 113T37 255Q37 338 70 396T164 486T306 517Q357 517 405 502T485 460L441 356Q416 379 384 390T321 402Q260 402 226 364T192 254Q192 182 226 144T321 106Q350 106 382 117T441 150L485
47Q453 20 405 5T306 -11ZM295 -197Q264 -197 236 -191T185 -175L206 -111Q224 -119 242 -124T280 -129Q307 -129 320 -123T333 -103Q333 -93 325 -88T296 -83Q287 -83 278 -83T258 -88L237 -68L251 20H327L314 -56L277 -42Q288 -38 300 -36T323 -34Q367 -34 393
-53T419 -108Q419 -148 385 -172T295 -197Z" />
<glyph unicode="&#xe8;" horiz-adv-x="550" d="M317 -11Q229 -11 166 21T70 112T37 253Q37 332 68 391T156 483T289 517Q364 517 414 485T490 396T516 262V227H161V302H406L389 288Q389 351 364 383T290 416Q254 416 230 399T193 348T180 265V249Q180 175 216
139T322 103Q363 103 399 113T469 147L511 47Q473 19 424 4T317 -11ZM239 555L92 760H236L339 555H239Z" />
<glyph unicode="&#xe9;" horiz-adv-x="550" d="M317 -11Q229 -11 166 21T70 112T37 253Q37 332 68 391T156 483T289 517Q364 517 414 485T490 396T516 262V227H161V302H406L389 288Q389 351 364 383T290 416Q254 416 230 399T193 348T180 265V249Q180 175 216
139T322 103Q363 103 399 113T469 147L511 47Q473 19 424 4T317 -11ZM239 555L342 760H486L339 555H239Z" />
<glyph unicode="&#xea;" horiz-adv-x="550" d="M317 -11Q229 -11 166 21T70 112T37 253Q37 332 68 391T156 483T289 517Q364 517 414 485T490 396T516 262V227H161V302H406L389 288Q389 351 364 383T290 416Q254 416 230 399T193 348T180 265V249Q180 175 216
139T322 103Q363 103 399 113T469 147L511 47Q473 19 424 4T317 -11ZM114 555L225 760H353L464 555H371L289 678L207 555H114Z" />
<glyph unicode="&#xeb;" horiz-adv-x="550" d="M317 -11Q229 -11 166 21T70 112T37 253Q37 332 68 391T156 483T289 517Q364 517 414 485T490 396T516 262V227H161V302H406L389 288Q389 351 364 383T290 416Q254 416 230 399T193 348T180 265V249Q180 175 216
139T322 103Q363 103 399 113T469 147L511 47Q473 19 424 4T317 -11ZM322 590V722H454V590H322ZM124 590V722H256V590H124Z" />
<glyph unicode="&#xec;" horiz-adv-x="274" d="M62 0V507H213V0H62ZM88 555L-59 760H85L188 555H88Z" />
<glyph unicode="&#xed;" horiz-adv-x="274" d="M62 0V507H213V0H62ZM88 555L191 760H335L188 555H88Z" />
<glyph unicode="&#xee;" horiz-adv-x="274" d="M62 0V507H213V0H62ZM-37 555L74 760H202L313 555H220L138 678L56 555H-37Z" />
<glyph unicode="&#xef;" horiz-adv-x="274" d="M62 0V507H213V0H62ZM171 590V722H303V590H171ZM-27 590V722H105V590H-27Z" />
<glyph unicode="&#xf0;" horiz-adv-x="612" d="M299 -11Q221 -11 162 18T70 100T37 223Q37 290 68 341T155 422T284 451Q352 451 397 422T466 326H435Q434 396 403 459T313 569L338 566L137 475L107 541L270 613L268 599Q237 617 202 630T128 652L154 746Q229
738 289 714T396 656L369 659L492 714L523 649L423 604L429 628Q481 583 513 526T560 408T576 287Q576 195 543 128T449 25T299 -11ZM304 104Q357 104 387 136T418 222Q418 276 388 307T303 339Q250 339 220 308T189 222Q189 167 219 136T304 104Z" />
<glyph unicode="&#xf1;" horiz-adv-x="613" d="M62 0V375Q62 407 60 440T54 507H199L210 413H198Q223 463 269 490T376 517Q465 517 509 466T554 306V0H403V299Q403 354 383 377T323 400Q273 400 243 369T213 284V0H62ZM177 581L106 585Q111 661 146 701T233 742Q256
742 275 734T318 709Q338 694 351 688T378 682Q428 682 439 746L510 742Q506 666 471 626T383 585Q361 585 341 593T297 619Q278 633 265 639T238 645Q210 645 196 628T177 581Z" />
<glyph unicode="&#xf2;" horiz-adv-x="604" d="M302 -11Q221 -11 162 21T70 113T37 254Q37 335 69 394T161 485T302 517Q383 517 443 485T535 394T568 254Q568 172 536 113T443 22T302 -11ZM302 103Q354 103 384 140T415 254Q415 331 385 367T302 403Q250 403
220 367T189 254Q189 177 219 140T302 103ZM253 555L106 760H250L353 555H253Z" />
<glyph unicode="&#xf3;" horiz-adv-x="604" d="M302 -11Q221 -11 162 21T70 113T37 254Q37 335 69 394T161 485T302 517Q383 517 443 485T535 394T568 254Q568 172 536 113T443 22T302 -11ZM302 103Q354 103 384 140T415 254Q415 331 385 367T302 403Q250 403
220 367T189 254Q189 177 219 140T302 103ZM253 555L356 760H500L353 555H253Z" />
<glyph unicode="&#xf4;" horiz-adv-x="604" d="M302 -11Q221 -11 162 21T70 113T37 254Q37 335 69 394T161 485T302 517Q383 517 443 485T535 394T568 254Q568 172 536 113T443 22T302 -11ZM302 103Q354 103 384 140T415 254Q415 331 385 367T302 403Q250 403
220 367T189 254Q189 177 219 140T302 103ZM128 555L239 760H367L478 555H385L303 678L221 555H128Z" />
<glyph unicode="&#xf5;" horiz-adv-x="604" d="M302 -11Q221 -11 162 21T70 113T37 254Q37 335 69 394T161 485T302 517Q383 517 443 485T535 394T568 254Q568 172 536 113T443 22T302 -11ZM302 103Q354 103 384 140T415 254Q415 331 385 367T302 403Q250 403
220 367T189 254Q189 177 219 140T302 103ZM172 581L101 585Q106 661 141 701T228 742Q251 742 270 734T313 709Q333 694 346 688T373 682Q423 682 434 746L505 742Q501 666 466 626T378 585Q356 585 336 593T292 619Q273 633 260 639T233 645Q205 645 191 628T172
581Z" />
<glyph unicode="&#xf6;" horiz-adv-x="604" d="M302 -11Q221 -11 162 21T70 113T37 254Q37 335 69 394T161 485T302 517Q383 517 443 485T535 394T568 254Q568 172 536 113T443 22T302 -11ZM302 103Q354 103 384 140T415 254Q415 331 385 367T302 403Q250 403
220 367T189 254Q189 177 219 140T302 103ZM336 590V722H468V590H336ZM138 590V722H270V590H138Z" />
<glyph unicode="&#xf7;" horiz-adv-x="600" d="M55 235V339H545V235H55ZM237 34V149H352V34H237ZM237 425V540H352V425H237Z" />
<glyph unicode="&#xf8;" horiz-adv-x="604" d="M302 -11Q221 -11 162 21T70 113T37 254Q37 335 69 394T161 485T302 517Q383 517 443 485T535 394T568 254Q568 172 536 113T443 22T302 -11ZM302 103Q364 103 396 142T428 254Q428 326 396 364T302 403Q240 403
208 365T176 254Q176 181 208 142T302 103ZM169 -55L100 -14L437 562L506 521L169 -55Z" />
<glyph unicode="&#xf9;" horiz-adv-x="607" d="M246 -11Q151 -11 105 41T59 201V507H210V201Q210 153 229 130T290 107Q335 107 364 138T394 223V507H545V0H398V97H412Q389 46 346 18T246 -11ZM253 556L106 761H250L353 556H253Z" />
<glyph unicode="&#xfa;" horiz-adv-x="607" d="M246 -11Q151 -11 105 41T59 201V507H210V201Q210 153 229 130T290 107Q335 107 364 138T394 223V507H545V0H398V97H412Q389 46 346 18T246 -11ZM253 556L356 761H500L353 556H253Z" />
<glyph unicode="&#xfb;" horiz-adv-x="607" d="M246 -11Q151 -11 105 41T59 201V507H210V201Q210 153 229 130T290 107Q335 107 364 138T394 223V507H545V0H398V97H412Q389 46 346 18T246 -11ZM128 556L239 761H367L478 556H385L303 679L221 556H128Z" />
<glyph unicode="&#xfc;" horiz-adv-x="607" d="M246 -11Q151 -11 105 41T59 201V507H210V201Q210 153 229 130T290 107Q335 107 364 138T394 223V507H545V0H398V97H412Q389 46 346 18T246 -11ZM336 591V723H468V591H336ZM138 591V723H270V591H138Z" />
<glyph unicode="&#xfd;" horiz-adv-x="550" d="M57 -227L22 -109Q69 -100 101 -88T155 -57T189 -6L214 53L210 -5L-10 507H149L294 140H263L410 507H560L331 -20Q306 -77 278 -114T216 -174T144 -208T57 -227ZM224 555L327 760H471L324 555H224Z" />
<glyph unicode="&#xfe;" horiz-adv-x="632" d="M62 -216V736H213V408H200Q215 458 263 487T372 517Q439 517 489 486T567 395T596 254Q596 171 568 112T490 21T373 -11Q312 -11 265 18T201 95H213V-216H62ZM327 103Q380 103 412 140T444 254Q444 331 412 367T327
403Q275 403 243 367T210 254Q210 177 242 140T327 103Z" />
<glyph unicode="&#xff;" horiz-adv-x="550" d="M57 -227L22 -109Q69 -100 101 -88T155 -57T189 -6L214 53L210 -5L-10 507H149L294 140H263L410 507H560L331 -20Q306 -77 278 -114T216 -174T144 -208T57 -227ZM307 590V722H439V590H307ZM109 590V722H241V590H109Z" />
<glyph unicode="&#x2013;" horiz-adv-x="505" d="M0 232V320H505V232H0Z" />
<glyph unicode="&#x2014;" horiz-adv-x="1010" d="M0 232V320H1010V232H0Z" />
<glyph unicode="&#x2018;" horiz-adv-x="260" d="M49 409V512Q49 550 57 583T86 648T139 714L198 666Q163 631 148 600T133 533L98 570H211V409H49Z" />
<glyph unicode="&#x2019;" horiz-adv-x="260" d="M122 401L63 448Q98 484 112 515T127 581L162 545H49V705H212V602Q212 565 203 532T175 466T122 401Z" />
<glyph unicode="&#x201a;" horiz-adv-x="260" d="M122 -144L63 -97Q97 -63 112 -33T127 36L162 0H49V160H212V57Q212 19 203 -15T175 -80T122 -144Z" />
<glyph unicode="&#x201c;" horiz-adv-x="477" d="M49 409V512Q49 550 57 583T86 648T139 714L198 666Q163 631 148 600T133 533L98 570H211V409H49ZM266 409V512Q266 550 274 583T303 648T356 714L415 666Q380 631 365 600T350 533L315 570H428V409H266Z" />
<glyph unicode="&#x201d;" horiz-adv-x="477" d="M122 401L63 448Q98 484 112 515T127 581L162 545H49V705H212V602Q212 565 203 532T175 466T122 401ZM339 401L280 448Q315 484 329 515T344 581L379 545H266V705H429V602Q429 565 420 532T392 466T339 401Z" />
<glyph unicode="&#x201e;" horiz-adv-x="477" d="M122 -144L63 -97Q97 -63 112 -33T127 36L162 0H49V160H212V57Q212 19 203 -15T175 -80T122 -144ZM339 -144L280 -97Q314 -63 329 -33T344 36L379 0H266V160H429V57Q429 19 420 -15T392 -80T339 -144Z" />
<glyph unicode="&#x2022;" horiz-adv-x="529" d="M265 89Q216 89 174 112T107 177T82 268Q82 314 105 355T170 421T265 447Q314 447 355 424T421 360T447 268Q447 219 423 178T357 113T265 89Z" />
<glyph unicode="&#x2039;" horiz-adv-x="306" d="M155 85L22 268L155 451H279L153 268L279 85H155Z" />
<glyph unicode="&#x203a;" horiz-adv-x="306" d="M151 85H27L153 268L27 451H152L284 268L151 85Z" />
</font>
</defs>
</svg>
